<svg width="1920" height="1080" viewBox="0 0 1920 1080" fill="none" xmlns="http://www.w3.org/2000/svg">
<g id="Cover" clip-path="url(#clip0)">
<rect width="1920" height="1080" fill="black" style="mix-blend-mode:darken"/>
<g id="LooperGroup">
<g id="inner__vectors">
<g id="Vector" opacity="0.01">
<path d="M1334.39 904.322C1386.56 854.432 1378.95 792.25 1355.51 727.369C1346.68 702.937 1335.57 678 1324.46 653.088C1320.81 644.897 1317.16 636.708 1313.59 628.541C1299.15 595.488 1286.06 562.762 1279.57 531.383C1276.03 514.238 1273.07 497.072 1270.12 479.977C1259.34 417.384 1248.73 355.741 1210 299.587C1168.46 239.354 1103.12 197.209 1036.74 154.389C1026.39 147.716 1016.02 141.026 1005.71 134.249C980.348 117.581 956.193 98.0749 932.126 78.1916C928.943 75.5621 925.761 72.9258 922.579 70.2887C901.714 52.9996 880.806 35.6742 859.184 19.9809C809.336 -16.1991 755.49 -43.8622 689.018 -42.6549C622.648 -41.4495 569.944 -12.2226 521.906 25.5771C499.502 43.2059 478.077 62.7294 456.754 82.1588C455.228 83.5496 453.702 84.9399 452.177 86.329C429.32 107.141 406.504 127.686 382.557 145.63C359.911 162.598 336.17 178.891 312.45 195.169C310.069 196.803 307.689 198.437 305.309 200.072C279.238 217.979 253.331 235.948 229.151 254.813C180.803 292.535 139.204 333.959 116.862 385.94C67.6155 500.517 63.8046 630.251 127.387 740.178C192.157 852.16 313.557 948.397 462.11 983.143C531.887 999.463 600.06 985.823 668.592 966.59C683.836 962.312 699.092 957.76 714.387 953.196C767.957 937.212 822.019 921.08 877.81 916.057C916.331 912.589 957.783 916.086 999.923 921.824C1020.34 924.603 1040.89 927.906 1061.34 931.191L1063.3 931.506C1084.39 934.894 1105.36 938.245 1125.9 940.96C1166.97 946.388 1206.45 949.288 1241.95 944.821C1277.48 940.351 1309.12 928.49 1334.39 904.322Z" fill="black" style="mix-blend-mode:darken"/>
<path d="M1334.39 904.322C1386.56 854.432 1378.95 792.25 1355.51 727.369C1346.68 702.937 1335.57 678 1324.46 653.088C1320.81 644.897 1317.16 636.708 1313.59 628.541C1299.15 595.488 1286.06 562.762 1279.57 531.383C1276.03 514.238 1273.07 497.072 1270.12 479.977C1259.34 417.384 1248.73 355.741 1210 299.587C1168.46 239.354 1103.12 197.209 1036.74 154.389C1026.39 147.716 1016.02 141.026 1005.71 134.249C980.348 117.581 956.193 98.0749 932.126 78.1916C928.943 75.5621 925.761 72.9258 922.579 70.2887C901.714 52.9996 880.806 35.6742 859.184 19.9809C809.336 -16.1991 755.49 -43.8622 689.018 -42.6549C622.648 -41.4495 569.944 -12.2226 521.906 25.5771C499.502 43.2059 478.077 62.7294 456.754 82.1588C455.228 83.5496 453.702 84.9399 452.177 86.329C429.32 107.141 406.504 127.686 382.557 145.63C359.911 162.598 336.17 178.891 312.45 195.169C310.069 196.803 307.689 198.437 305.309 200.072C279.238 217.979 253.331 235.948 229.151 254.813C180.803 292.535 139.204 333.959 116.862 385.94C67.6155 500.517 63.8046 630.251 127.387 740.178C192.157 852.16 313.557 948.397 462.11 983.143C531.887 999.463 600.06 985.823 668.592 966.59C683.836 962.312 699.092 957.76 714.387 953.196C767.957 937.212 822.019 921.08 877.81 916.057C916.331 912.589 957.783 916.086 999.923 921.824C1020.34 924.603 1040.89 927.906 1061.34 931.191L1063.3 931.506C1084.39 934.894 1105.36 938.245 1125.9 940.96C1166.97 946.388 1206.45 949.288 1241.95 944.821C1277.48 940.351 1309.12 928.49 1334.39 904.322Z" stroke="url(#paint0_linear)" stroke-width="3"/>
</g>
<g id="Vector_2" opacity="0.02">
<path d="M1349.35 898.709C1400.25 848.271 1391.29 786.405 1366.51 722.073C1357.17 697.847 1345.55 673.149 1333.93 648.477C1330.11 640.365 1326.29 632.255 1322.56 624.166C1307.44 591.428 1293.68 558.997 1286.52 527.817C1282.61 510.782 1279.29 493.717 1275.98 476.722C1263.86 414.495 1251.92 353.212 1212.09 297.786C1169.37 238.334 1103.33 197.235 1036.23 155.478C1025.77 148.971 1015.29 142.447 1004.87 135.836C979.227 119.574 954.726 100.469 930.305 80.9865C927.075 78.4097 923.846 75.8263 920.616 73.2419C899.444 56.3005 878.227 39.3235 856.335 23.9826C805.862 -11.3854 751.594 -38.211 685.378 -36.0935C619.263 -33.9792 567.383 -4.1293 520.342 34.1998C498.403 52.0751 477.481 71.8249 456.66 91.4793C455.169 92.8866 453.679 94.2934 452.189 95.699C429.868 116.753 407.584 137.54 384.114 155.75C361.918 172.971 338.617 189.534 315.336 206.083C313 207.743 310.665 209.403 308.33 211.064C282.743 229.268 257.321 247.53 233.639 266.662C186.287 304.917 145.741 346.77 124.618 398.879C78.0608 513.735 77.1165 643.072 142.898 751.743C209.909 862.444 333.007 956.674 481.811 989.255C551.707 1004.56 619.345 990.028 687.217 969.919C702.315 965.447 717.418 960.701 732.56 955.942C785.593 939.276 839.114 922.458 894.602 916.685C932.913 912.699 974.299 915.613 1016.42 920.751C1036.82 923.241 1057.38 926.249 1077.83 929.241L1079.79 929.528C1100.88 932.614 1121.85 935.665 1142.38 938.088C1183.43 942.932 1222.84 945.278 1258.12 940.339C1293.42 935.396 1324.69 923.141 1349.35 898.709Z" fill="black" style="mix-blend-mode:darken"/>
<path d="M1349.35 898.709C1400.25 848.271 1391.29 786.405 1366.51 722.073C1357.17 697.847 1345.55 673.149 1333.93 648.477C1330.11 640.365 1326.29 632.255 1322.56 624.166C1307.44 591.428 1293.68 558.997 1286.52 527.817C1282.61 510.782 1279.29 493.717 1275.98 476.722C1263.86 414.495 1251.92 353.212 1212.09 297.786C1169.37 238.334 1103.33 197.235 1036.23 155.478C1025.77 148.971 1015.29 142.447 1004.87 135.836C979.227 119.574 954.726 100.469 930.305 80.9865C927.075 78.4097 923.846 75.8263 920.616 73.2419C899.444 56.3005 878.227 39.3235 856.335 23.9826C805.862 -11.3854 751.594 -38.211 685.378 -36.0935C619.263 -33.9792 567.383 -4.1293 520.342 34.1998C498.403 52.0751 477.481 71.8249 456.66 91.4793C455.169 92.8866 453.679 94.2934 452.189 95.699C429.868 116.753 407.584 137.54 384.114 155.75C361.918 172.971 338.617 189.534 315.336 206.083C313 207.743 310.665 209.403 308.33 211.064C282.743 229.268 257.321 247.53 233.639 266.662C186.287 304.917 145.741 346.77 124.618 398.879C78.0608 513.735 77.1165 643.072 142.898 751.743C209.909 862.444 333.007 956.674 481.811 989.255C551.707 1004.56 619.345 990.028 687.217 969.919C702.315 965.447 717.418 960.701 732.56 955.942C785.593 939.276 839.114 922.458 894.602 916.685C932.913 912.699 974.299 915.613 1016.42 920.751C1036.82 923.241 1057.38 926.249 1077.83 929.241L1079.79 929.528C1100.88 932.614 1121.85 935.665 1142.38 938.088C1183.43 942.932 1222.84 945.278 1258.12 940.339C1293.42 935.396 1324.69 923.141 1349.35 898.709Z" stroke="url(#paint1_linear)" stroke-width="3"/>
</g>
<g id="Vector_3" opacity="0.03">
<path d="M1364.08 892.912C1413.7 841.946 1403.42 780.415 1377.3 716.65C1367.47 692.637 1355.33 668.186 1343.22 643.76C1339.23 635.728 1335.25 627.7 1331.35 619.69C1315.56 587.275 1301.13 555.147 1293.32 524.177C1289.05 507.255 1285.36 490.296 1281.69 473.407C1268.24 411.565 1254.99 350.659 1214.08 295.974C1170.2 237.317 1103.49 197.271 1035.7 156.583C1025.14 150.242 1014.55 143.886 1004.01 137.441C978.107 121.59 953.271 102.889 928.505 83.81C925.23 81.2869 921.956 78.757 918.681 76.2263C897.209 59.6355 875.691 43.0097 853.537 28.0236C802.462 -6.52619 747.791 -32.5112 681.85 -29.4901C616.011 -26.4737 564.966 3.98549 518.93 42.828C497.461 60.942 477.046 80.91 456.73 100.781C455.274 102.205 453.82 103.628 452.365 105.049C430.585 126.337 408.835 147.357 385.847 165.826C364.107 183.292 341.252 200.116 318.416 216.927C316.124 218.614 313.833 220.301 311.542 221.988C286.444 240.48 261.511 259.028 238.332 278.419C191.985 317.192 152.499 359.456 132.594 411.676C88.7226 526.773 90.6263 655.672 158.571 763.059C227.786 872.451 352.531 964.658 501.537 995.077C571.527 1009.36 638.611 993.955 705.807 972.983C720.754 968.318 735.7 963.381 750.685 958.431C803.168 941.094 856.134 923.598 911.302 917.082C949.394 912.583 990.7 914.918 1032.79 919.459C1053.18 921.658 1073.72 924.373 1094.17 927.074L1096.13 927.333C1117.22 930.118 1138.18 932.87 1158.7 935.002C1199.71 939.264 1239.03 941.06 1274.08 935.652C1309.15 930.241 1340.05 917.599 1364.08 892.912Z" fill="black" style="mix-blend-mode:darken"/>
<path d="M1364.08 892.912C1413.7 841.946 1403.42 780.415 1377.3 716.65C1367.47 692.637 1355.33 668.186 1343.22 643.76C1339.23 635.728 1335.25 627.7 1331.35 619.69C1315.56 587.275 1301.13 555.147 1293.32 524.177C1289.05 507.255 1285.36 490.296 1281.69 473.407C1268.24 411.565 1254.99 350.659 1214.08 295.974C1170.2 237.317 1103.49 197.271 1035.7 156.583C1025.14 150.242 1014.55 143.886 1004.01 137.441C978.107 121.59 953.271 102.889 928.505 83.81C925.23 81.2869 921.956 78.757 918.681 76.2263C897.209 59.6355 875.691 43.0097 853.537 28.0236C802.462 -6.52619 747.791 -32.5112 681.85 -29.4901C616.011 -26.4737 564.966 3.98549 518.93 42.828C497.461 60.942 477.046 80.91 456.73 100.781C455.274 102.205 453.82 103.628 452.365 105.049C430.585 126.337 408.835 147.357 385.847 165.826C364.107 183.292 341.252 200.116 318.416 216.927C316.124 218.614 313.833 220.301 311.542 221.988C286.444 240.48 261.511 259.028 238.332 278.419C191.985 317.192 152.499 359.456 132.594 411.676C88.7226 526.773 90.6263 655.672 158.571 763.059C227.786 872.451 352.531 964.658 501.537 995.077C571.527 1009.36 638.611 993.955 705.807 972.983C720.754 968.318 735.7 963.381 750.685 958.431C803.168 941.094 856.134 923.598 911.302 917.082C949.394 912.583 990.7 914.918 1032.79 919.459C1053.18 921.658 1073.72 924.373 1094.17 927.074L1096.13 927.333C1117.22 930.118 1138.18 932.87 1158.7 935.002C1199.71 939.264 1239.03 941.06 1274.08 935.652C1309.15 930.241 1340.05 917.599 1364.08 892.912Z" stroke="url(#paint2_linear)" stroke-width="3"/>
</g>
<g id="Vector_4" opacity="0.04">
<path d="M1378.59 886.936C1426.91 835.463 1415.31 774.284 1387.88 711.103C1377.55 687.31 1364.93 663.111 1352.31 638.938C1348.17 630.989 1344.02 623.044 1339.96 615.116C1323.52 583.032 1308.43 551.217 1299.96 520.463C1295.33 503.661 1291.28 486.812 1287.25 470.033C1272.49 408.593 1257.95 348.082 1215.98 294.151C1170.96 236.304 1103.6 197.316 1035.15 157.704C1024.48 151.531 1013.79 145.342 1003.15 139.065C976.988 123.626 951.826 105.333 926.727 86.662C923.407 84.1924 920.088 81.7161 916.768 79.239C895.007 63.0023 873.199 46.7314 850.793 32.1031C799.134 -1.62263 744.081 -26.7642 678.436 -22.8466C612.891 -18.9349 562.693 12.1197 517.67 51.4595C496.673 69.8061 476.767 89.9858 456.957 110.067C455.539 111.505 454.122 112.942 452.704 114.378C431.468 135.89 410.256 157.136 387.755 175.855C366.475 193.558 344.071 210.637 321.685 227.702C319.437 229.415 317.189 231.129 314.943 232.842C290.338 251.614 265.9 270.44 243.228 290.082C197.894 329.356 159.473 372.016 140.785 424.329C99.596 539.626 104.328 668.049 174.4 774.125C245.781 882.181 372.121 972.348 521.279 1000.61C591.34 1013.88 657.853 997.606 724.355 975.784C739.147 970.93 753.932 965.804 768.757 960.666C820.677 942.668 873.073 924.504 927.907 917.252C965.767 912.245 1006.98 914.003 1049.02 917.949C1069.39 919.86 1089.92 922.282 1110.36 924.692L1112.32 924.924C1133.39 927.409 1154.35 929.863 1174.84 931.705C1215.8 935.388 1255.03 936.637 1289.83 930.766C1324.67 924.891 1355.18 911.869 1378.59 886.936Z" fill="black" style="mix-blend-mode:darken"/>
<path d="M1378.59 886.936C1426.91 835.463 1415.31 774.284 1387.88 711.103C1377.55 687.31 1364.93 663.111 1352.31 638.938C1348.17 630.989 1344.02 623.044 1339.96 615.116C1323.52 583.032 1308.43 551.217 1299.96 520.463C1295.33 503.661 1291.28 486.812 1287.25 470.033C1272.49 408.593 1257.95 348.082 1215.98 294.151C1170.96 236.304 1103.6 197.316 1035.15 157.704C1024.48 151.531 1013.79 145.342 1003.15 139.065C976.988 123.626 951.826 105.333 926.727 86.662C923.407 84.1924 920.088 81.7161 916.768 79.239C895.007 63.0023 873.199 46.7314 850.793 32.1031C799.134 -1.62263 744.081 -26.7642 678.436 -22.8466C612.891 -18.9349 562.693 12.1197 517.67 51.4595C496.673 69.8061 476.767 89.9858 456.957 110.067C455.539 111.505 454.122 112.942 452.704 114.378C431.468 135.89 410.256 157.136 387.755 175.855C366.475 193.558 344.071 210.637 321.685 227.702C319.437 229.415 317.189 231.129 314.943 232.842C290.338 251.614 265.9 270.44 243.228 290.082C197.894 329.356 159.473 372.016 140.785 424.329C99.596 539.626 104.328 668.049 174.4 774.125C245.781 882.181 372.121 972.348 521.279 1000.61C591.34 1013.88 657.853 997.606 724.355 975.784C739.147 970.93 753.932 965.804 768.757 960.666C820.677 942.668 873.073 924.504 927.907 917.252C965.767 912.245 1006.98 914.003 1049.02 917.949C1069.39 919.86 1089.92 922.282 1110.36 924.692L1112.32 924.924C1133.39 927.409 1154.35 929.863 1174.84 931.705C1215.8 935.388 1255.03 936.637 1289.83 930.766C1324.67 924.891 1355.18 911.869 1378.59 886.936Z" stroke="url(#paint3_linear)" stroke-width="3"/>
</g>
<g id="Vector_5" opacity="0.05">
<path d="M1392.86 880.786C1439.89 828.826 1426.97 768.018 1398.25 705.436C1387.44 681.869 1374.32 657.929 1361.22 634.014C1356.91 626.151 1352.61 618.291 1348.38 610.447C1331.29 578.703 1315.56 547.208 1306.44 516.68C1301.46 500.001 1297.06 483.268 1292.67 466.604C1276.61 405.584 1260.79 345.484 1217.78 292.32C1171.65 235.296 1103.66 197.372 1034.58 158.842C1023.81 152.837 1013.02 146.817 1002.28 140.709C975.87 125.684 950.394 107.802 924.972 89.5422C921.609 87.1273 918.248 84.7056 914.885 82.2832C892.842 66.403 870.752 50.4891 848.102 36.2205C795.881 3.32431 740.467 -20.9713 675.136 -16.1643C609.905 -11.3646 560.564 20.2714 516.561 60.0924C496.041 78.6627 476.649 99.0443 457.351 119.327C455.969 120.78 454.587 122.232 453.205 123.683C432.516 145.411 411.845 166.873 389.834 185.836C369.017 203.77 347.065 221.098 325.131 238.412C322.93 240.149 320.729 241.886 318.529 243.624C294.424 262.668 270.484 281.764 248.322 301.649C204.01 341.408 166.66 384.447 149.187 436.834C110.676 552.294 118.216 680.201 190.378 784.94C263.887 891.634 391.771 979.745 541.031 1005.85C611.14 1018.12 677.064 1000.98 742.854 978.322C757.488 973.282 772.11 967.971 786.769 962.647C838.112 943.998 889.927 925.178 944.41 917.197C982.027 911.687 1023.14 912.872 1065.12 916.225C1085.46 917.85 1105.98 919.981 1126.4 922.102L1128.35 922.305C1149.4 924.491 1170.34 926.648 1190.8 928.202C1231.7 931.308 1270.82 932.013 1305.37 925.684C1339.96 919.35 1370.08 905.954 1392.86 880.786Z" fill="black" style="mix-blend-mode:darken"/>
<path d="M1392.86 880.786C1439.89 828.826 1426.97 768.018 1398.25 705.436C1387.44 681.869 1374.32 657.929 1361.22 634.014C1356.91 626.151 1352.61 618.291 1348.38 610.447C1331.29 578.703 1315.56 547.208 1306.44 516.68C1301.46 500.001 1297.06 483.268 1292.67 466.604C1276.61 405.584 1260.79 345.484 1217.78 292.32C1171.65 235.296 1103.66 197.372 1034.58 158.842C1023.81 152.837 1013.02 146.817 1002.28 140.709C975.87 125.684 950.394 107.802 924.972 89.5422C921.609 87.1273 918.248 84.7056 914.885 82.2832C892.842 66.403 870.752 50.4891 848.102 36.2205C795.881 3.32431 740.467 -20.9713 675.136 -16.1643C609.905 -11.3646 560.564 20.2714 516.561 60.0924C496.041 78.6627 476.649 99.0443 457.351 119.327C455.969 120.78 454.587 122.232 453.205 123.683C432.516 145.411 411.845 166.873 389.834 185.836C369.017 203.77 347.065 221.098 325.131 238.412C322.93 240.149 320.729 241.886 318.529 243.624C294.424 262.668 270.484 281.764 248.322 301.649C204.01 341.408 166.66 384.447 149.187 436.834C110.676 552.294 118.216 680.201 190.378 784.94C263.887 891.634 391.771 979.745 541.031 1005.85C611.14 1018.12 677.064 1000.98 742.854 978.322C757.488 973.282 772.11 967.971 786.769 962.647C838.112 943.998 889.927 925.178 944.41 917.197C982.027 911.687 1023.14 912.872 1065.12 916.225C1085.46 917.85 1105.98 919.981 1126.4 922.102L1128.35 922.305C1149.4 924.491 1170.34 926.648 1190.8 928.202C1231.7 931.308 1270.82 932.013 1305.37 925.684C1339.96 919.35 1370.08 905.954 1392.86 880.786Z" stroke="url(#paint4_linear)" stroke-width="3"/>
</g>
<g id="Vector_6" opacity="0.07">
<path d="M1420.67 867.978C1465.09 815.104 1449.6 755.09 1418.35 693.758C1406.58 670.661 1392.51 647.258 1378.46 623.879C1373.84 616.192 1369.22 608.508 1364.68 600.838C1346.32 569.796 1329.33 538.966 1318.94 508.916C1313.26 492.497 1308.16 476.009 1303.07 459.588C1284.46 399.459 1266.12 340.233 1221.09 288.639C1172.79 233.299 1103.63 197.519 1033.37 161.168C1022.42 155.502 1011.44 149.824 1000.51 144.055C973.635 129.865 947.562 112.814 921.525 95.386C918.081 93.0813 914.639 90.7699 911.195 88.4578C888.616 73.2991 865.989 58.1082 842.878 44.5657C789.596 13.344 733.52 -9.25326 668.874 -2.6902C604.327 3.86291 556.73 36.6194 514.793 77.354C495.235 96.3509 476.876 117.115 458.607 137.778C457.299 139.257 455.992 140.736 454.684 142.213C435.098 164.348 415.519 186.218 394.5 205.644C374.62 224.017 353.586 241.82 332.569 259.608C330.461 261.392 328.354 263.176 326.247 264.96C303.152 284.525 280.223 304.136 259.094 324.482C216.847 365.163 181.653 408.91 166.602 461.394C133.43 577.061 146.521 703.822 222.749 805.813C300.399 909.705 431.214 993.659 580.532 1015.48C650.669 1025.74 715.362 1006.92 779.68 982.62C793.987 977.216 808.269 971.543 822.589 965.856C872.741 945.937 923.352 925.836 977.087 916.42C1014.19 909.919 1055.05 909.968 1096.87 912.145C1117.13 913.2 1137.6 914.753 1157.96 916.298L1159.91 916.446C1180.9 918.039 1201.78 919.606 1222.16 920.587C1262.9 922.549 1301.76 922.176 1335.79 914.946C1369.84 907.711 1399.16 893.587 1420.67 867.978Z" fill="black" style="mix-blend-mode:darken"/>
<path d="M1420.67 867.978C1465.09 815.104 1449.6 755.09 1418.35 693.758C1406.58 670.661 1392.51 647.258 1378.46 623.879C1373.84 616.192 1369.22 608.508 1364.68 600.838C1346.32 569.796 1329.33 538.966 1318.94 508.916C1313.26 492.497 1308.16 476.009 1303.07 459.588C1284.46 399.459 1266.12 340.233 1221.09 288.639C1172.79 233.299 1103.63 197.519 1033.37 161.168C1022.42 155.502 1011.44 149.824 1000.51 144.055C973.635 129.865 947.562 112.814 921.525 95.386C918.081 93.0813 914.639 90.7699 911.195 88.4578C888.616 73.2991 865.989 58.1082 842.878 44.5657C789.596 13.344 733.52 -9.25326 668.874 -2.6902C604.327 3.86291 556.73 36.6194 514.793 77.354C495.235 96.3509 476.876 117.115 458.607 137.778C457.299 139.257 455.992 140.736 454.684 142.213C435.098 164.348 415.519 186.218 394.5 205.644C374.62 224.017 353.586 241.82 332.569 259.608C330.461 261.392 328.354 263.176 326.247 264.96C303.152 284.525 280.223 304.136 259.094 324.482C216.847 365.163 181.653 408.91 166.602 461.394C133.43 577.061 146.521 703.822 222.749 805.813C300.399 909.705 431.214 993.659 580.532 1015.48C650.669 1025.74 715.362 1006.92 779.68 982.62C793.987 977.216 808.269 971.543 822.589 965.856C872.741 945.937 923.352 925.836 977.087 916.42C1014.19 909.919 1055.05 909.968 1096.87 912.145C1117.13 913.2 1137.6 914.753 1157.96 916.298L1159.91 916.446C1180.9 918.039 1201.78 919.606 1222.16 920.587C1262.9 922.549 1301.76 922.176 1335.79 914.946C1369.84 907.711 1399.16 893.587 1420.67 867.978Z" stroke="url(#paint5_linear)" stroke-width="3"/>
</g>
<g id="Vector_7" opacity="0.08">
<path d="M1434.22 861.328C1477.32 808.028 1460.56 748.438 1428.07 687.755C1415.83 664.902 1401.3 641.774 1386.78 618.672C1382.01 611.076 1377.24 603.483 1372.55 595.903C1353.57 565.225 1335.96 534.739 1324.94 504.939C1318.93 488.658 1313.48 472.299 1308.05 456.006C1288.18 396.347 1268.6 337.584 1222.59 286.792C1173.25 232.314 1103.55 197.612 1032.73 162.357C1021.7 156.863 1010.63 151.355 999.616 145.757C972.519 131.989 946.163 115.356 919.834 98.3493C916.352 96.0999 912.87 93.8439 909.387 91.587C886.555 76.7934 863.674 61.9682 840.347 48.7922C786.565 18.4147 730.188 -3.33081 665.913 4.09848C601.736 11.5165 555.026 44.8118 514.131 85.9788C495.06 105.177 477.223 126.119 459.473 146.958C458.202 148.451 456.931 149.943 455.66 151.434C436.629 173.76 417.6 195.821 397.082 215.467C377.676 234.047 357.108 252.076 336.557 270.089C334.495 271.896 332.434 273.703 330.374 275.51C307.79 295.323 285.373 315.18 264.765 335.744C223.561 376.862 189.452 420.938 175.607 473.443C145.094 589.157 160.926 715.288 239.13 815.868C318.793 918.323 450.994 1000.18 600.268 1019.87C670.384 1029.12 734.437 1009.48 797.995 984.383C812.133 978.801 826.24 972.952 840.384 967.088C889.922 946.55 939.912 925.824 993.251 915.703C1030.08 908.715 1070.8 908.201 1112.52 909.795C1132.73 910.568 1153.16 911.833 1173.48 913.093L1175.43 913.213C1196.39 914.511 1217.22 915.786 1237.55 916.483C1278.19 917.877 1316.91 916.971 1350.66 909.299C1384.44 901.621 1413.34 887.143 1434.22 861.328Z" fill="black" style="mix-blend-mode:darken"/>
<path d="M1434.22 861.328C1477.32 808.028 1460.56 748.438 1428.07 687.755C1415.83 664.902 1401.3 641.774 1386.78 618.672C1382.01 611.076 1377.24 603.483 1372.55 595.903C1353.57 565.225 1335.96 534.739 1324.94 504.939C1318.93 488.658 1313.48 472.299 1308.05 456.006C1288.18 396.347 1268.6 337.584 1222.59 286.792C1173.25 232.314 1103.55 197.612 1032.73 162.357C1021.7 156.863 1010.63 151.355 999.616 145.757C972.519 131.989 946.163 115.356 919.834 98.3493C916.352 96.0999 912.87 93.8439 909.387 91.587C886.555 76.7934 863.674 61.9682 840.347 48.7922C786.565 18.4147 730.188 -3.33081 665.913 4.09848C601.736 11.5165 555.026 44.8118 514.131 85.9788C495.06 105.177 477.223 126.119 459.473 146.958C458.202 148.451 456.931 149.943 455.66 151.434C436.629 173.76 417.6 195.821 397.082 215.467C377.676 234.047 357.108 252.076 336.557 270.089C334.495 271.896 332.434 273.703 330.374 275.51C307.79 295.323 285.373 315.18 264.765 335.744C223.561 376.862 189.452 420.938 175.607 473.443C145.094 589.157 160.926 715.288 239.13 815.868C318.793 918.323 450.994 1000.18 600.268 1019.87C670.384 1029.12 734.437 1009.48 797.995 984.383C812.133 978.801 826.24 972.952 840.384 967.088C889.922 946.55 939.912 925.824 993.251 915.703C1030.08 908.715 1070.8 908.201 1112.52 909.795C1132.73 910.568 1153.16 911.833 1173.48 913.093L1175.43 913.213C1196.39 914.511 1217.22 915.786 1237.55 916.483C1278.19 917.877 1316.91 916.971 1350.66 909.299C1384.44 901.621 1413.34 887.143 1434.22 861.328Z" stroke="url(#paint6_linear)" stroke-width="3"/>
</g>
<g id="Vector_8" opacity="0.09">
<path d="M1447.51 854.521C1489.29 800.815 1471.28 741.665 1437.57 681.646C1424.87 659.043 1409.88 636.198 1394.91 613.378C1389.98 605.875 1385.06 598.375 1380.22 590.886C1360.64 560.579 1342.42 530.445 1330.79 500.904C1324.43 484.763 1318.64 468.538 1312.88 452.379C1291.76 393.207 1270.96 334.922 1224 284.944C1173.63 231.338 1103.41 197.719 1032.07 163.565C1020.95 158.242 1009.81 152.907 998.708 147.48C971.404 134.134 944.775 117.924 918.165 101.34C914.646 99.1468 911.128 96.947 907.608 94.7465C884.53 80.3196 861.403 65.8618 837.868 53.0535C783.608 23.5245 726.951 2.63211 663.065 10.9194C599.276 19.1942 553.462 53.0139 513.616 94.5969C495.034 113.989 477.72 135.101 460.491 156.111C459.257 157.616 458.023 159.12 456.79 160.623C438.317 183.131 419.84 205.375 399.826 225.232C380.898 244.013 360.8 262.259 340.717 280.491C338.702 282.32 336.687 284.149 334.674 285.979C312.605 306.031 290.704 326.126 270.621 346.9C230.466 388.438 197.445 432.827 184.802 485.336C156.941 601.057 175.491 726.522 255.631 825.667C337.266 926.661 470.802 1006.4 619.983 1023.97C690.057 1032.22 753.453 1011.77 816.235 985.892C830.2 980.135 844.129 974.113 858.094 968.075C907.005 946.929 956.363 925.589 1009.29 914.77C1045.84 907.3 1086.4 906.228 1128.01 907.243C1148.17 907.734 1168.54 908.714 1188.82 909.689L1190.77 909.783C1211.68 910.788 1232.48 911.771 1252.75 912.186C1293.28 913.016 1331.84 911.581 1365.3 903.471C1398.79 895.355 1427.27 880.532 1447.51 854.521Z" fill="black" style="mix-blend-mode:darken"/>
<path d="M1447.51 854.521C1489.29 800.815 1471.28 741.665 1437.57 681.646C1424.87 659.043 1409.88 636.198 1394.91 613.378C1389.98 605.875 1385.06 598.375 1380.22 590.886C1360.64 560.579 1342.42 530.445 1330.79 500.904C1324.43 484.763 1318.64 468.538 1312.88 452.379C1291.76 393.207 1270.96 334.922 1224 284.944C1173.63 231.338 1103.41 197.719 1032.07 163.565C1020.95 158.242 1009.81 152.907 998.708 147.48C971.404 134.134 944.775 117.924 918.165 101.34C914.646 99.1468 911.128 96.947 907.608 94.7465C884.53 80.3196 861.403 65.8618 837.868 53.0535C783.608 23.5245 726.951 2.63211 663.065 10.9194C599.276 19.1942 553.462 53.0139 513.616 94.5969C495.034 113.989 477.72 135.101 460.491 156.111C459.257 157.616 458.023 159.12 456.79 160.623C438.317 183.131 419.84 205.375 399.826 225.232C380.898 244.013 360.8 262.259 340.717 280.491C338.702 282.32 336.687 284.149 334.674 285.979C312.605 306.031 290.704 326.126 270.621 346.9C230.466 388.438 197.445 432.827 184.802 485.336C156.941 601.057 175.491 726.522 255.631 825.667C337.266 926.661 470.802 1006.4 619.983 1023.97C690.057 1032.22 753.453 1011.77 816.235 985.892C830.2 980.135 844.129 974.113 858.094 968.075C907.005 946.929 956.363 925.589 1009.29 914.77C1045.84 907.3 1086.4 906.228 1128.01 907.243C1148.17 907.734 1168.54 908.714 1188.82 909.689L1190.77 909.783C1211.68 910.788 1232.48 911.771 1252.75 912.186C1293.28 913.016 1331.84 911.581 1365.3 903.471C1398.79 895.355 1427.27 880.532 1447.51 854.521Z" stroke="url(#paint7_linear)" stroke-width="3"/>
</g>
<g id="Vector_9" opacity="0.1">
<path d="M1460.55 847.559C1480.73 820.57 1486.08 792.368 1481.96 763.466C1477.85 734.631 1464.32 705.134 1446.84 675.435C1433.7 653.088 1418.25 630.531 1402.83 607.999C1397.76 600.591 1392.69 593.185 1387.7 585.791C1367.53 555.861 1348.7 526.087 1336.47 496.812C1329.78 480.817 1323.66 464.73 1317.55 448.709C1295.21 390.039 1273.21 332.248 1225.31 283.095C1173.94 230.374 1103.23 197.842 1031.39 164.791C1020.19 159.641 1008.97 154.478 997.79 149.224C970.29 136.301 943.399 120.516 916.519 104.357C912.964 102.22 909.409 100.077 905.853 97.9323C882.54 83.8749 859.178 69.7874 835.444 57.3491C780.727 28.6725 723.81 8.63414 660.331 17.771C596.948 26.8941 552.038 61.2238 513.247 103.206C495.157 122.784 478.369 144.06 461.662 165.231C460.466 166.747 459.269 168.263 458.073 169.778C440.16 192.459 422.238 214.877 402.732 234.939C384.284 253.912 364.659 272.369 345.049 290.811C343.08 292.662 341.113 294.512 339.146 296.363C317.596 316.648 296.214 336.971 276.659 357.948C237.558 399.889 205.629 444.575 194.186 497.071C168.967 612.762 190.209 737.522 272.247 835.211C355.814 934.719 490.632 1012.34 639.672 1027.79C709.681 1035.05 772.404 1013.8 834.394 987.147C848.184 981.219 861.932 975.026 875.715 968.818C923.988 947.075 972.702 925.133 1025.2 913.625C1061.45 905.679 1101.85 904.053 1143.34 904.491C1163.43 904.703 1183.77 905.399 1204 906.092L1205.93 906.158C1226.79 906.872 1247.53 907.565 1267.74 907.7C1308.14 907.969 1346.54 906.008 1379.7 897.467C1412.9 888.92 1440.95 873.757 1460.55 847.559Z" fill="black" style="mix-blend-mode:darken"/>
<path d="M1460.55 847.559C1480.73 820.57 1486.08 792.368 1481.96 763.466C1477.85 734.631 1464.32 705.134 1446.84 675.435C1433.7 653.088 1418.25 630.531 1402.83 607.999C1397.76 600.591 1392.69 593.185 1387.7 585.791C1367.53 555.861 1348.7 526.087 1336.47 496.812C1329.78 480.817 1323.66 464.73 1317.55 448.709C1295.21 390.039 1273.21 332.248 1225.31 283.095C1173.94 230.374 1103.23 197.842 1031.39 164.791C1020.19 159.641 1008.97 154.478 997.79 149.224C970.29 136.301 943.399 120.516 916.519 104.357C912.964 102.22 909.409 100.077 905.853 97.9323C882.54 83.8749 859.178 69.7874 835.444 57.3491C780.727 28.6725 723.81 8.63414 660.331 17.771C596.948 26.8941 552.038 61.2238 513.247 103.206C495.157 122.784 478.369 144.06 461.662 165.231C460.466 166.747 459.269 168.263 458.073 169.778C440.16 192.459 422.238 214.877 402.732 234.939C384.284 253.912 364.659 272.369 345.049 290.811C343.08 292.662 341.113 294.512 339.146 296.363C317.596 316.648 296.214 336.971 276.659 357.948C237.558 399.889 205.629 444.575 194.186 497.071C168.967 612.762 190.209 737.522 272.247 835.211C355.814 934.719 490.632 1012.34 639.672 1027.79C709.681 1035.05 772.404 1013.8 834.394 987.147C848.184 981.219 861.932 975.026 875.715 968.818C923.988 947.075 972.702 925.133 1025.2 913.625C1061.45 905.679 1101.85 904.053 1143.34 904.491C1163.43 904.703 1183.77 905.399 1204 906.092L1205.93 906.158C1226.79 906.872 1247.53 907.565 1267.74 907.7C1308.14 907.969 1346.54 906.008 1379.7 897.467C1412.9 888.92 1440.95 873.757 1460.55 847.559Z" stroke="url(#paint8_linear)" stroke-width="3"/>
</g>
<g id="Vector_10" opacity="0.11">
<path d="M1473.33 840.449C1512.45 785.993 1491.98 727.774 1455.89 669.127C1442.3 647.041 1426.42 624.778 1410.55 602.539C1405.33 595.228 1400.12 587.918 1394.99 580.619C1374.23 551.075 1354.82 521.668 1341.98 492.667C1334.97 476.822 1328.51 460.877 1322.08 444.998C1298.53 386.846 1275.33 329.565 1226.52 281.247C1174.17 229.422 1102.99 197.98 1030.68 166.037C1019.42 161.059 1008.12 156.069 996.862 150.988C969.176 138.49 942.034 123.132 914.894 107.402C911.304 105.321 907.714 103.234 904.123 101.146C880.585 87.4601 856.996 73.7449 833.073 61.6781C777.919 33.8575 720.763 14.6739 657.708 24.6518C594.749 34.6145 550.753 69.4395 513.022 111.805C495.426 131.562 479.164 152.992 462.982 174.317C461.824 175.845 460.665 177.371 459.507 178.896C442.156 201.743 424.791 224.326 405.795 244.584C387.83 263.743 368.68 282.403 349.545 301.049C347.624 302.92 345.704 304.791 343.785 306.662C322.758 327.17 301.898 347.715 282.873 368.885C244.834 411.214 214 456.179 203.751 508.645C181.164 624.267 205.074 748.288 288.969 844.497C374.427 942.499 510.474 1017.99 659.326 1031.33C729.247 1037.6 791.281 1015.56 852.466 988.152C866.077 982.055 879.639 975.696 893.237 969.321C940.861 946.991 988.919 924.459 1040.98 912.269C1076.93 903.853 1117.14 901.677 1158.49 901.543C1178.52 901.478 1198.79 901.891 1218.96 902.303L1220.9 902.343C1241.7 902.767 1262.38 903.172 1282.52 903.028C1322.79 902.741 1361.01 900.258 1393.87 891.291C1426.75 882.318 1454.38 866.823 1473.33 840.449Z" fill="black" style="mix-blend-mode:darken"/>
<path d="M1473.33 840.449C1512.45 785.993 1491.98 727.774 1455.89 669.127C1442.3 647.041 1426.42 624.778 1410.55 602.539C1405.33 595.228 1400.12 587.918 1394.99 580.619C1374.23 551.075 1354.82 521.668 1341.98 492.667C1334.97 476.822 1328.51 460.877 1322.08 444.998C1298.53 386.846 1275.33 329.565 1226.52 281.247C1174.17 229.422 1102.99 197.98 1030.68 166.037C1019.42 161.059 1008.12 156.069 996.862 150.988C969.176 138.49 942.034 123.132 914.894 107.402C911.304 105.321 907.714 103.234 904.123 101.146C880.585 87.4601 856.996 73.7449 833.073 61.6781C777.919 33.8575 720.763 14.6739 657.708 24.6518C594.749 34.6145 550.753 69.4395 513.022 111.805C495.426 131.562 479.164 152.992 462.982 174.317C461.824 175.845 460.665 177.371 459.507 178.896C442.156 201.743 424.791 224.326 405.795 244.584C387.83 263.743 368.68 282.403 349.545 301.049C347.624 302.92 345.704 304.791 343.785 306.662C322.758 327.17 301.898 347.715 282.873 368.885C244.834 411.214 214 456.179 203.751 508.645C181.164 624.267 205.074 748.288 288.969 844.497C374.427 942.499 510.474 1017.99 659.326 1031.33C729.247 1037.6 791.281 1015.56 852.466 988.152C866.077 982.055 879.639 975.696 893.237 969.321C940.861 946.991 988.919 924.459 1040.98 912.269C1076.93 903.853 1117.14 901.677 1158.49 901.543C1178.52 901.478 1198.79 901.891 1218.96 902.303L1220.9 902.343C1241.7 902.767 1262.38 903.172 1282.52 903.028C1322.79 902.741 1361.01 900.258 1393.87 891.291C1426.75 882.318 1454.38 866.823 1473.33 840.449Z" stroke="url(#paint9_linear)" stroke-width="3"/>
</g>
</g>
<g id="upper-vectors">
<g id="Vector_11" opacity="0.12">
<path fill-rule="evenodd" clip-rule="evenodd" d="M1345.97 489.087C1399.95 604.549 1559.06 724.37 1484.61 832.329C1412.4 937.045 1199.43 873.565 1056.23 909.252C923.179 942.412 817.848 1043.6 679.029 1033.1C530.814 1021.88 393.952 948.722 306.898 852.531C221.545 758.22 195.075 635.465 214.973 520.335C232.955 416.287 333.09 340.412 410.137 255.181C484.299 173.142 531.396 54.4599 655.479 33.0374C779.789 11.5758 883.588 105.726 995.348 154.146C1079.52 190.614 1165.25 221.866 1226.6 280.477C1289.59 340.651 1311.65 415.68 1345.97 489.087Z" fill="black" style="mix-blend-mode:darken"/>
<path fill-rule="evenodd" clip-rule="evenodd" d="M1345.97 489.087C1399.95 604.549 1559.06 724.37 1484.61 832.329C1412.4 937.045 1199.43 873.565 1056.23 909.252C923.179 942.412 817.848 1043.6 679.029 1033.1C530.814 1021.88 393.952 948.722 306.898 852.531C221.545 758.22 195.075 635.465 214.973 520.335C232.955 416.287 333.09 340.412 410.137 255.181C484.299 173.142 531.396 54.4599 655.479 33.0374C779.789 11.5758 883.588 105.726 995.348 154.146C1079.52 190.614 1165.25 221.866 1226.6 280.477C1289.59 340.651 1311.65 415.68 1345.97 489.087Z" stroke="url(#paint10_linear)" stroke-width="3"/>
</g>
<g id="Vector_12" opacity="0.13">
<path fill-rule="evenodd" clip-rule="evenodd" d="M1351.16 484.861C1407.49 599.162 1568.66 716.359 1496.85 824.952C1427.2 930.282 1213.6 869.962 1071.7 907.491C939.845 942.362 837.115 1044.64 698.561 1036.08C550.629 1026.94 412.648 955.933 323.791 861.289C236.669 768.493 207.597 646.547 224.893 531.561C240.524 427.643 338.633 350.664 413.531 264.682C485.625 181.92 529.945 63.0196 653.114 39.9671C776.508 16.8725 882.005 109.253 994.43 155.96C1079.1 191.137 1165.21 221.096 1227.63 278.651C1291.72 337.739 1315.35 412.192 1351.16 484.861Z" fill="black" style="mix-blend-mode:darken"/>
<path fill-rule="evenodd" clip-rule="evenodd" d="M1351.16 484.861C1407.49 599.162 1568.66 716.359 1496.85 824.952C1427.2 930.282 1213.6 869.962 1071.7 907.491C939.845 942.362 837.115 1044.64 698.561 1036.08C550.629 1026.94 412.648 955.933 323.791 861.289C236.669 768.493 207.597 646.547 224.893 531.561C240.524 427.643 338.633 350.664 413.531 264.682C485.625 181.92 529.945 63.0196 653.114 39.9671C776.508 16.8725 882.005 109.253 994.43 155.96C1079.1 191.137 1165.21 221.096 1227.63 278.651C1291.72 337.739 1315.35 412.192 1351.16 484.861Z" stroke="url(#paint11_linear)" stroke-width="3"/>
</g>
<g id="Vector_13" opacity="0.14">
<path fill-rule="evenodd" clip-rule="evenodd" d="M1356.18 480.59C1414.82 593.699 1577.99 708.252 1508.83 817.439C1441.74 923.344 1227.58 866.184 1087.01 905.529C956.398 942.088 856.284 1045.4 718.038 1038.78C570.436 1031.71 431.389 962.865 340.771 869.788C251.922 778.529 220.273 657.427 234.98 542.62C248.271 438.865 344.337 360.816 417.077 274.116C487.093 190.662 528.641 71.5842 650.861 46.9205C773.306 22.2115 880.455 112.805 993.503 157.794C1078.65 191.678 1165.1 220.343 1228.57 276.829C1293.72 334.821 1318.9 408.678 1356.18 480.59Z" fill="black" style="mix-blend-mode:darken"/>
<path fill-rule="evenodd" clip-rule="evenodd" d="M1356.18 480.59C1414.82 593.699 1577.99 708.252 1508.83 817.439C1441.74 923.344 1227.58 866.184 1087.01 905.529C956.398 942.088 856.284 1045.4 718.038 1038.78C570.436 1031.71 431.389 962.865 340.771 869.788C251.922 778.529 220.273 657.427 234.98 542.62C248.271 438.865 344.337 360.816 417.077 274.116C487.093 190.662 528.641 71.5842 650.861 46.9205C773.306 22.2115 880.455 112.805 993.503 157.794C1078.65 191.678 1165.1 220.343 1228.57 276.829C1293.72 334.821 1318.9 408.678 1356.18 480.59Z" stroke="url(#paint12_linear)" stroke-width="3"/>
</g>
<g id="Vector_14" opacity="0.15">
<path fill-rule="evenodd" clip-rule="evenodd" d="M1361.04 476.276C1421.95 588.166 1587.05 700.055 1520.53 809.795C1456.02 916.238 1241.36 862.234 1102.17 903.37C972.831 941.593 875.348 1045.91 737.454 1041.22C590.227 1036.2 450.168 969.52 357.83 878.03C267.295 788.327 233.099 668.102 245.23 553.512C256.193 449.952 350.197 370.866 420.77 283.48C488.7 199.367 527.482 80.1522 648.721 53.8962C770.181 27.5922 878.936 116.38 992.566 159.649C1078.15 192.238 1164.92 219.608 1229.4 275.015C1295.6 331.898 1322.31 405.14 1361.04 476.276Z" fill="black" style="mix-blend-mode:darken"/>
<path fill-rule="evenodd" clip-rule="evenodd" d="M1361.04 476.276C1421.95 588.166 1587.05 700.055 1520.53 809.795C1456.02 916.238 1241.36 862.234 1102.17 903.37C972.831 941.593 875.348 1045.91 737.454 1041.22C590.227 1036.2 450.168 969.52 357.83 878.03C267.295 788.327 233.099 668.102 245.23 553.512C256.193 449.952 350.197 370.866 420.77 283.48C488.7 199.367 527.482 80.1522 648.721 53.8962C770.181 27.5922 878.936 116.38 992.566 159.649C1078.15 192.238 1164.92 219.608 1229.4 275.015C1295.6 331.898 1322.31 405.14 1361.04 476.276Z" stroke="url(#paint13_linear)" stroke-width="3"/>
</g>
<g id="Vector_15" opacity="0.16">
<path fill-rule="evenodd" clip-rule="evenodd" d="M1365.72 471.922C1428.87 582.565 1595.83 691.772 1531.97 802.026C1470.02 908.967 1254.96 858.115 1117.17 901.016C989.139 940.879 894.3 1046.16 756.801 1043.38C609.996 1040.41 468.977 975.898 374.961 886.014C282.782 797.885 246.067 678.571 255.636 564.233C264.283 460.902 356.211 380.811 424.609 292.774C490.445 208.034 526.467 88.7214 646.691 60.8929C767.135 33.0133 877.449 119.979 991.62 161.526C1077.61 192.818 1164.67 218.893 1230.13 273.21C1297.34 328.974 1325.57 401.58 1365.72 471.922Z" fill="black" style="mix-blend-mode:darken"/>
<path fill-rule="evenodd" clip-rule="evenodd" d="M1365.72 471.922C1428.87 582.565 1595.83 691.772 1531.97 802.026C1470.02 908.967 1254.96 858.115 1117.17 901.016C989.139 940.879 894.3 1046.16 756.801 1043.38C609.996 1040.41 468.977 975.898 374.961 886.014C282.782 797.885 246.067 678.571 255.636 564.233C264.283 460.902 356.211 380.811 424.609 292.774C490.445 208.034 526.467 88.7214 646.691 60.8929C767.135 33.0133 877.449 119.979 991.62 161.526C1077.61 192.818 1164.67 218.893 1230.13 273.21C1297.34 328.974 1325.57 401.58 1365.72 471.922Z" stroke="url(#paint14_linear)" stroke-width="3"/>
</g>
<g id="Vector_16" opacity="0.17">
<path fill-rule="evenodd" clip-rule="evenodd" d="M1370.23 467.532C1435.58 576.899 1604.34 683.407 1543.13 794.135C1483.76 901.536 1268.36 853.831 1132.01 898.471C1005.32 939.95 913.134 1046.15 776.073 1045.27C629.734 1044.33 487.808 982 392.157 893.74C298.376 807.204 259.172 688.833 266.194 574.783C272.539 471.712 362.374 390.65 428.589 301.995C492.325 216.66 525.595 97.2899 644.772 67.9087C764.167 38.4738 875.992 123.602 990.663 163.425C1077.03 193.418 1164.35 218.199 1230.77 271.415C1298.96 326.049 1328.68 398 1370.23 467.532Z" fill="black" style="mix-blend-mode:darken"/>
<path fill-rule="evenodd" clip-rule="evenodd" d="M1370.23 467.532C1435.58 576.899 1604.34 683.407 1543.13 794.135C1483.76 901.536 1268.36 853.831 1132.01 898.471C1005.32 939.95 913.134 1046.15 776.073 1045.27C629.734 1044.33 487.808 982 392.157 893.74C298.376 807.204 259.172 688.833 266.194 574.783C272.539 471.712 362.374 390.65 428.589 301.995C492.325 216.66 525.595 97.2899 644.772 67.9087C764.167 38.4738 875.992 123.602 990.663 163.425C1077.03 193.418 1164.35 218.199 1230.77 271.415C1298.96 326.049 1328.68 398 1370.23 467.532Z" stroke="url(#paint15_linear)" stroke-width="3"/>
</g>
<g id="Vector_17" opacity="0.18">
<path fill-rule="evenodd" clip-rule="evenodd" d="M1374.56 463.108C1442.08 571.172 1612.57 674.965 1554.01 786.127C1497.22 893.949 1281.55 849.385 1146.68 895.738C1021.36 938.808 931.845 1045.88 795.262 1046.9C649.435 1047.98 506.655 987.827 409.413 901.208C314.071 816.282 272.408 698.887 276.898 585.161C280.956 482.382 368.683 400.382 432.71 311.142C494.339 225.244 524.865 105.856 642.964 74.9427C761.278 43.9727 874.567 127.248 989.696 165.346C1076.41 194.039 1163.95 217.528 1231.3 269.633C1300.44 323.127 1331.63 394.404 1374.56 463.108Z" fill="black" style="mix-blend-mode:darken"/>
<path fill-rule="evenodd" clip-rule="evenodd" d="M1374.56 463.108C1442.08 571.172 1612.57 674.965 1554.01 786.127C1497.22 893.949 1281.55 849.385 1146.68 895.738C1021.36 938.808 931.845 1045.88 795.262 1046.9C649.435 1047.98 506.655 987.827 409.413 901.208C314.071 816.282 272.408 698.887 276.898 585.161C280.956 482.382 368.683 400.382 432.71 311.142C494.339 225.244 524.865 105.856 642.964 74.9427C761.278 43.9727 874.567 127.248 989.696 165.346C1076.41 194.039 1163.95 217.528 1231.3 269.633C1300.44 323.127 1331.63 394.404 1374.56 463.108Z" stroke="url(#paint16_linear)" stroke-width="3"/>
</g>
<g id="Vector_18" opacity="0.19">
<path fill-rule="evenodd" clip-rule="evenodd" d="M1378.72 458.652C1448.37 565.387 1620.52 666.45 1564.62 778.007C1510.4 886.213 1294.54 844.782 1161.18 892.82C1037.26 937.456 950.426 1045.37 814.364 1048.26C669.092 1051.34 525.511 993.379 426.72 908.419C329.86 825.119 285.77 708.731 287.745 595.364C289.53 492.91 375.136 410.005 436.968 320.214C496.485 233.785 524.277 114.418 641.266 81.993C758.468 49.5089 873.174 130.917 988.72 167.289C1075.74 194.683 1163.49 216.879 1231.74 267.865C1301.8 320.21 1334.44 390.793 1378.72 458.652Z" fill="black" style="mix-blend-mode:darken"/>
<path fill-rule="evenodd" clip-rule="evenodd" d="M1378.72 458.652C1448.37 565.387 1620.52 666.45 1564.62 778.007C1510.4 886.213 1294.54 844.782 1161.18 892.82C1037.26 937.456 950.426 1045.37 814.364 1048.26C669.092 1051.34 525.511 993.379 426.72 908.419C329.86 825.119 285.77 708.731 287.745 595.364C289.53 492.91 375.136 410.005 436.968 320.214C496.485 233.785 524.277 114.418 641.266 81.993C758.468 49.5089 873.174 130.917 988.72 167.289C1075.74 194.683 1163.49 216.879 1231.74 267.865C1301.8 320.21 1334.44 390.793 1378.72 458.652Z" stroke="url(#paint17_linear)" stroke-width="3"/>
</g>
<g id="Vector_19" opacity="0.2">
<path fill-rule="evenodd" clip-rule="evenodd" d="M1382.71 454.169C1454.45 559.549 1628.18 657.867 1574.94 769.78C1523.3 878.331 1307.32 840.025 1175.5 889.721C1053.02 935.897 968.872 1044.6 833.37 1049.36C688.697 1054.43 544.369 998.657 444.073 915.373C345.737 833.715 299.252 718.366 298.729 605.392C298.256 503.293 381.727 419.517 441.361 329.208C498.761 242.28 523.829 122.973 639.677 89.0583C755.737 55.0812 871.811 134.608 987.733 169.255C1075.04 195.349 1162.95 216.255 1232.07 266.113C1303.03 317.298 1337.1 387.171 1382.71 454.169Z" fill="black" style="mix-blend-mode:darken"/>
<path fill-rule="evenodd" clip-rule="evenodd" d="M1382.71 454.169C1454.45 559.549 1628.18 657.867 1574.94 769.78C1523.3 878.331 1307.32 840.025 1175.5 889.721C1053.02 935.897 968.872 1044.6 833.37 1049.36C688.697 1054.43 544.369 998.657 444.073 915.373C345.737 833.715 299.252 718.366 298.729 605.392C298.256 503.293 381.727 419.517 441.361 329.208C498.761 242.28 523.829 122.973 639.677 89.0583C755.737 55.0812 871.811 134.608 987.733 169.255C1075.04 195.349 1162.95 216.255 1232.07 266.113C1303.03 317.298 1337.1 387.171 1382.71 454.169Z" stroke="url(#paint18_linear)" stroke-width="3"/>
</g>
<g id="Vector_20" opacity="0.21">
<path fill-rule="evenodd" clip-rule="evenodd" d="M1386.52 449.66C1460.31 553.66 1635.57 649.221 1584.98 761.45C1535.91 870.308 1319.88 835.118 1189.64 886.444C1068.62 934.135 987.175 1043.59 852.275 1050.19C708.245 1057.24 563.221 1003.66 461.464 922.069C361.695 842.069 312.846 727.789 309.844 615.243C307.13 513.531 388.454 428.918 445.884 338.123C501.164 250.729 523.519 131.521 638.197 96.1373C753.084 60.6888 870.479 138.322 986.737 171.244C1074.3 196.039 1162.34 215.657 1232.3 264.377C1304.13 314.396 1339.61 383.539 1386.52 449.66Z" fill="black" style="mix-blend-mode:darken"/>
<path fill-rule="evenodd" clip-rule="evenodd" d="M1386.52 449.66C1460.31 553.66 1635.57 649.221 1584.98 761.45C1535.91 870.308 1319.88 835.118 1189.64 886.444C1068.62 934.135 987.175 1043.59 852.275 1050.19C708.245 1057.24 563.221 1003.66 461.464 922.069C361.695 842.069 312.846 727.789 309.844 615.243C307.13 513.531 388.454 428.918 445.884 338.123C501.164 250.729 523.519 131.521 638.197 96.1373C753.084 60.6888 870.479 138.322 986.737 171.244C1074.3 196.039 1162.34 215.657 1232.3 264.377C1304.13 314.396 1339.61 383.539 1386.52 449.66Z" stroke="url(#paint19_linear)" stroke-width="3"/>
</g>
<g id="Vector_21" opacity="0.22">
<path fill-rule="evenodd" clip-rule="evenodd" d="M1390.16 445.129C1465.96 547.725 1642.67 640.516 1594.74 753.023C1548.24 862.15 1332.23 830.066 1203.6 882.992C1084.07 932.171 1005.33 1042.34 871.073 1050.78C727.728 1059.78 582.061 1008.4 478.887 928.51C377.728 850.182 326.549 737.001 321.085 624.917C316.147 523.621 395.313 438.205 450.537 346.959C503.694 259.13 523.348 140.059 636.825 103.229C750.511 66.331 869.179 142.058 985.731 173.256C1073.51 196.754 1161.67 215.086 1232.44 262.661C1305.1 311.504 1341.97 379.901 1390.16 445.129Z" fill="black" style="mix-blend-mode:darken"/>
<path fill-rule="evenodd" clip-rule="evenodd" d="M1390.16 445.129C1465.96 547.725 1642.67 640.516 1594.74 753.023C1548.24 862.15 1332.23 830.066 1203.6 882.992C1084.07 932.171 1005.33 1042.34 871.073 1050.78C727.728 1059.78 582.061 1008.4 478.887 928.51C377.728 850.182 326.549 737.001 321.085 624.917C316.147 523.621 395.313 438.205 450.537 346.959C503.694 259.13 523.348 140.059 636.825 103.229C750.511 66.331 869.179 142.058 985.731 173.256C1073.51 196.754 1161.67 215.086 1232.44 262.661C1305.1 311.504 1341.97 379.901 1390.16 445.129Z" stroke="url(#paint20_linear)" stroke-width="3"/>
</g>
<g id="Vector_22" opacity="0.23">
<path fill-rule="evenodd" clip-rule="evenodd" d="M1393.62 440.579C1471.4 541.747 1649.49 631.757 1604.2 744.503C1560.28 853.861 1344.36 824.871 1217.37 879.37C1099.36 930.01 1023.33 1040.85 889.756 1051.1C747.139 1062.05 600.882 1012.86 496.334 934.695C393.829 858.053 340.353 746.001 332.448 634.412C325.303 533.564 402.299 447.377 455.316 355.713C506.346 267.481 523.312 148.586 635.561 110.331C748.016 72.0063 867.908 145.816 984.715 175.293C1072.69 197.493 1160.92 214.544 1232.47 260.966C1305.94 308.626 1344.17 376.259 1393.62 440.579Z" fill="black" style="mix-blend-mode:darken"/>
<path fill-rule="evenodd" clip-rule="evenodd" d="M1393.62 440.579C1471.4 541.747 1649.49 631.757 1604.2 744.503C1560.28 853.861 1344.36 824.871 1217.37 879.37C1099.36 930.01 1023.33 1040.85 889.756 1051.1C747.139 1062.05 600.882 1012.86 496.334 934.695C393.829 858.053 340.353 746.001 332.448 634.412C325.303 533.564 402.299 447.377 455.316 355.713C506.346 267.481 523.312 148.586 635.561 110.331C748.016 72.0063 867.908 145.816 984.715 175.293C1072.69 197.493 1160.92 214.544 1232.47 260.966C1305.94 308.626 1344.17 376.259 1393.62 440.579Z" stroke="url(#paint21_linear)" stroke-width="3"/>
</g>
<g id="Vector_23" opacity="0.24">
<path fill-rule="evenodd" clip-rule="evenodd" d="M1396.91 436.012C1476.62 535.729 1656.03 622.949 1613.38 735.894C1572.02 845.446 1356.27 819.538 1230.94 875.581C1114.49 927.655 1041.17 1039.13 908.319 1051.18C766.472 1064.04 619.678 1017.06 513.801 940.625C409.993 865.683 354.254 754.788 343.927 643.727C334.594 543.356 409.411 456.434 460.218 364.384C509.121 275.781 523.412 157.099 634.405 117.443C745.6 77.7138 866.669 149.595 983.69 177.353C1071.82 198.259 1160.1 214.03 1232.41 259.293C1306.65 305.762 1346.23 372.614 1396.91 436.012Z" fill="black" style="mix-blend-mode:darken"/>
<path fill-rule="evenodd" clip-rule="evenodd" d="M1396.91 436.012C1476.62 535.729 1656.03 622.949 1613.38 735.894C1572.02 845.446 1356.27 819.538 1230.94 875.581C1114.49 927.655 1041.17 1039.13 908.319 1051.18C766.472 1064.04 619.678 1017.06 513.801 940.625C409.993 865.683 354.254 754.788 343.927 643.727C334.594 543.356 409.411 456.434 460.218 364.384C509.121 275.781 523.412 157.099 634.405 117.443C745.6 77.7138 866.669 149.595 983.69 177.353C1071.82 198.259 1160.1 214.03 1232.41 259.293C1306.65 305.762 1346.23 372.614 1396.91 436.012Z" stroke="url(#paint22_linear)" stroke-width="3"/>
</g>
<g id="Vector_24" opacity="0.25">
<path fill-rule="evenodd" clip-rule="evenodd" d="M1400.01 431.432C1481.62 529.675 1662.27 614.096 1622.27 727.202C1583.47 836.91 1367.95 814.071 1244.32 871.628C1129.45 925.11 1058.85 1037.17 926.757 1051.01C785.72 1065.78 638.441 1020.99 531.28 946.301C426.212 873.071 368.246 763.362 355.517 652.862C344.015 552.998 416.645 465.374 465.24 372.971C512.016 284.029 523.647 165.598 633.355 124.563C743.264 83.453 865.461 153.396 982.656 179.438C1070.92 199.052 1159.22 213.548 1232.25 257.645C1307.23 302.916 1348.13 368.971 1400.01 431.432Z" fill="black" style="mix-blend-mode:darken"/>
<path fill-rule="evenodd" clip-rule="evenodd" d="M1400.01 431.432C1481.62 529.675 1662.27 614.096 1622.27 727.202C1583.47 836.91 1367.95 814.071 1244.32 871.628C1129.45 925.11 1058.85 1037.17 926.757 1051.01C785.72 1065.78 638.441 1020.99 531.28 946.301C426.212 873.071 368.246 763.362 355.517 652.862C344.015 552.998 416.645 465.374 465.24 372.971C512.016 284.029 523.647 165.598 633.355 124.563C743.264 83.453 865.461 153.396 982.656 179.438C1070.92 199.052 1159.22 213.548 1232.25 257.645C1307.23 302.916 1348.13 368.971 1400.01 431.432Z" stroke="url(#paint23_linear)" stroke-width="3"/>
</g>
<g id="Vector_25" opacity="0.26">
<path fill-rule="evenodd" clip-rule="evenodd" d="M1402.94 426.841C1486.4 523.59 1668.23 605.203 1630.86 718.432C1594.62 828.259 1379.41 808.474 1257.5 867.515C1144.23 922.376 1076.36 1034.99 945.062 1050.59C804.877 1067.24 657.164 1024.66 548.763 951.724C442.48 880.218 382.321 771.722 367.213 661.816C353.56 562.488 423.995 474.195 470.379 381.473C515.027 292.224 524.014 174.081 632.411 131.69C741.006 89.2223 864.282 157.218 981.611 181.548C1069.98 199.872 1158.26 213.098 1231.99 256.022C1307.69 300.09 1349.89 365.331 1402.94 426.841Z" fill="black" style="mix-blend-mode:darken"/>
<path fill-rule="evenodd" clip-rule="evenodd" d="M1402.94 426.841C1486.4 523.59 1668.23 605.203 1630.86 718.432C1594.62 828.259 1379.41 808.474 1257.5 867.515C1144.23 922.376 1076.36 1034.99 945.062 1050.59C804.877 1067.24 657.164 1024.66 548.763 951.724C442.48 880.218 382.321 771.722 367.213 661.816C353.56 562.488 423.995 474.195 470.379 381.473C515.027 292.224 524.014 174.081 632.411 131.69C741.006 89.2223 864.282 157.218 981.611 181.548C1069.98 199.872 1158.26 213.098 1231.99 256.022C1307.69 300.09 1349.89 365.331 1402.94 426.841Z" stroke="url(#paint24_linear)" stroke-width="3"/>
</g>
<g id="Vector_26" opacity="0.27">
<path fill-rule="evenodd" clip-rule="evenodd" d="M1405.7 422.243C1490.96 517.475 1673.91 596.274 1639.17 709.589C1605.47 819.498 1390.63 802.75 1270.48 863.247C1158.84 919.459 1093.69 1032.58 963.229 1049.93C823.935 1068.45 675.841 1028.06 566.245 956.895C458.791 887.124 396.475 779.869 379.01 670.587C363.227 571.825 431.459 482.897 475.633 389.889C518.153 300.363 524.512 182.545 631.572 138.823C738.828 95.021 863.135 161.061 980.557 183.683C1068.99 200.721 1157.24 212.68 1231.63 254.426C1308.01 297.284 1351.49 361.697 1405.7 422.243Z" fill="black" style="mix-blend-mode:darken"/>
<path fill-rule="evenodd" clip-rule="evenodd" d="M1405.7 422.243C1490.96 517.475 1673.91 596.274 1639.17 709.589C1605.47 819.498 1390.63 802.75 1270.48 863.247C1158.84 919.459 1093.69 1032.58 963.229 1049.93C823.935 1068.45 675.841 1028.06 566.245 956.895C458.791 887.124 396.475 779.869 379.01 670.587C363.227 571.825 431.459 482.897 475.633 389.889C518.153 300.363 524.512 182.545 631.572 138.823C738.828 95.021 863.135 161.061 980.557 183.683C1068.99 200.721 1157.24 212.68 1231.63 254.426C1308.01 297.284 1351.49 361.697 1405.7 422.243Z" stroke="url(#paint25_linear)" stroke-width="3"/>
</g>
<g id="Vector_27" opacity="0.28">
<path fill-rule="evenodd" clip-rule="evenodd" d="M1408.27 417.641C1495.31 511.335 1679.3 587.316 1647.17 700.676C1616.01 810.631 1401.62 796.906 1283.25 858.826C1173.26 916.362 1110.84 1029.95 981.253 1049.03C842.89 1069.4 694.467 1031.2 583.721 961.816C475.138 893.79 410.702 787.801 390.904 679.177C373.012 581.008 439.033 491.479 480.999 398.217C521.394 308.447 525.142 190.99 630.838 145.96C736.728 100.848 862.017 164.925 979.495 185.844C1067.97 201.599 1156.15 212.298 1231.18 252.86C1308.21 294.503 1352.94 358.072 1408.27 417.641Z" fill="black" style="mix-blend-mode:darken"/>
<path fill-rule="evenodd" clip-rule="evenodd" d="M1408.27 417.641C1495.31 511.335 1679.3 587.316 1647.17 700.676C1616.01 810.631 1401.62 796.906 1283.25 858.826C1173.26 916.362 1110.84 1029.95 981.253 1049.03C842.89 1069.4 694.467 1031.2 583.721 961.816C475.138 893.79 410.702 787.801 390.904 679.177C373.012 581.008 439.033 491.479 480.999 398.217C521.394 308.447 525.142 190.99 630.838 145.96C736.728 100.848 862.017 164.925 979.495 185.844C1067.97 201.599 1156.15 212.298 1231.18 252.86C1308.21 294.503 1352.94 358.072 1408.27 417.641Z" stroke="url(#paint26_linear)" stroke-width="3"/>
</g>
<g id="Vector_28" opacity="0.29">
<path fill-rule="evenodd" clip-rule="evenodd" d="M1410.67 413.037C1499.44 505.175 1684.4 578.331 1654.88 691.701C1626.25 801.664 1412.37 790.944 1295.8 854.257C1187.49 913.088 1127.81 1027.1 999.127 1047.89C861.735 1070.09 713.033 1034.08 601.182 966.486C491.516 900.216 424.996 795.52 402.888 687.583C382.908 590.036 446.714 499.941 486.474 406.457C524.745 316.474 525.899 199.414 630.208 153.101C734.708 106.703 860.93 168.81 978.424 188.031C1066.91 202.507 1154.99 211.951 1230.63 251.325C1308.28 291.748 1354.24 354.458 1410.67 413.037Z" fill="black" style="mix-blend-mode:darken"/>
<path fill-rule="evenodd" clip-rule="evenodd" d="M1410.67 413.037C1499.44 505.175 1684.4 578.331 1654.88 691.701C1626.25 801.664 1412.37 790.944 1295.8 854.257C1187.49 913.088 1127.81 1027.1 999.127 1047.89C861.735 1070.09 713.033 1034.08 601.182 966.486C491.516 900.216 424.996 795.52 402.888 687.583C382.908 590.036 446.714 499.941 486.474 406.457C524.745 316.474 525.899 199.414 630.208 153.101C734.708 106.703 860.93 168.81 978.424 188.031C1066.91 202.507 1154.99 211.951 1230.63 251.325C1308.28 291.748 1354.24 354.458 1410.67 413.037Z" stroke="url(#paint27_linear)" stroke-width="3"/>
</g>
<g id="Vector_29" opacity="0.3">
<path fill-rule="evenodd" clip-rule="evenodd" d="M1412.89 408.434C1503.34 498.996 1689.21 569.324 1662.3 682.666C1636.19 792.602 1422.88 784.868 1308.15 849.544C1201.54 909.641 1144.59 1024.03 1016.85 1046.52C880.463 1070.52 731.534 1036.7 618.624 970.909C507.919 906.403 439.352 803.024 414.958 695.806C392.912 598.909 454.498 508.28 492.055 414.607C528.205 324.442 526.785 207.816 629.681 160.244C732.766 112.584 859.874 172.714 977.343 190.243C1065.82 203.446 1153.77 211.64 1229.98 249.822C1308.23 289.02 1355.39 350.857 1412.89 408.434Z" fill="black" style="mix-blend-mode:darken"/>
<path fill-rule="evenodd" clip-rule="evenodd" d="M1412.89 408.434C1503.34 498.996 1689.21 569.324 1662.3 682.666C1636.19 792.602 1422.88 784.868 1308.15 849.544C1201.54 909.641 1144.59 1024.03 1016.85 1046.52C880.463 1070.52 731.534 1036.7 618.624 970.909C507.919 906.403 439.352 803.024 414.958 695.806C392.912 598.909 454.498 508.28 492.055 414.607C528.205 324.442 526.785 207.816 629.681 160.244C732.766 112.584 859.874 172.714 977.343 190.243C1065.82 203.446 1153.77 211.64 1229.98 249.822C1308.23 289.02 1355.39 350.857 1412.89 408.434Z" stroke="url(#paint28_linear)" stroke-width="3"/>
</g>
<g id="Vector_30" opacity="0.31">
<path fill-rule="evenodd" clip-rule="evenodd" d="M1414.93 403.836C1507.03 492.804 1693.73 560.301 1669.41 673.577C1645.82 783.45 1433.15 778.684 1320.27 844.691C1215.39 906.024 1161.16 1020.76 1034.41 1044.92C899.067 1070.71 749.963 1039.07 636.037 975.085C524.337 912.352 453.762 810.316 427.107 703.846C403.017 607.625 462.38 516.496 497.737 422.667C531.77 332.351 527.795 216.193 629.256 167.387C730.902 118.492 858.846 176.64 976.254 192.483C1064.68 204.416 1152.47 211.368 1229.24 248.353C1308.05 286.323 1356.38 347.272 1414.93 403.836Z" fill="black" style="mix-blend-mode:darken"/>
<path fill-rule="evenodd" clip-rule="evenodd" d="M1414.93 403.836C1507.03 492.804 1693.73 560.301 1669.41 673.577C1645.82 783.45 1433.15 778.684 1320.27 844.691C1215.39 906.024 1161.16 1020.76 1034.41 1044.92C899.067 1070.71 749.963 1039.07 636.037 975.085C524.337 912.352 453.762 810.316 427.107 703.846C403.017 607.625 462.38 516.496 497.737 422.667C531.77 332.351 527.795 216.193 629.256 167.387C730.902 118.492 858.846 176.64 976.254 192.483C1064.68 204.416 1152.47 211.368 1229.24 248.353C1308.05 286.323 1356.38 347.272 1414.93 403.836Z" stroke="url(#paint29_linear)" stroke-width="3"/>
</g>
<g id="Vector_31" opacity="0.32">
<path fill-rule="evenodd" clip-rule="evenodd" d="M1416.8 399.245C1510.5 486.601 1697.97 551.266 1676.23 664.44C1655.14 774.213 1443.17 772.395 1332.18 839.701C1229.04 902.242 1177.54 1017.28 1051.8 1043.09C917.543 1070.65 768.314 1041.18 653.419 979.015C540.768 918.063 468.222 817.393 439.332 711.701C413.222 616.184 470.358 524.59 503.52 430.635C535.44 340.2 528.931 224.545 628.932 174.53C729.116 124.423 857.849 180.585 975.155 194.75C1063.51 205.419 1151.12 211.135 1228.4 246.92C1307.74 283.658 1357.23 343.706 1416.8 399.245Z" fill="black" style="mix-blend-mode:darken"/>
<path fill-rule="evenodd" clip-rule="evenodd" d="M1416.8 399.245C1510.5 486.601 1697.97 551.266 1676.23 664.44C1655.14 774.213 1443.17 772.395 1332.18 839.701C1229.04 902.242 1177.54 1017.28 1051.8 1043.09C917.543 1070.65 768.314 1041.18 653.419 979.015C540.768 918.063 468.222 817.393 439.332 711.701C413.222 616.184 470.358 524.59 503.52 430.635C535.44 340.2 528.931 224.545 628.932 174.53C729.116 124.423 857.849 180.585 975.155 194.75C1063.51 205.419 1151.12 211.135 1228.4 246.92C1307.74 283.658 1357.23 343.706 1416.8 399.245Z" stroke="url(#paint30_linear)" stroke-width="3"/>
</g>
<g id="Vector_32" opacity="0.33">
<path fill-rule="evenodd" clip-rule="evenodd" d="M1418.49 394.664C1513.75 480.391 1701.92 542.224 1682.74 655.259C1664.14 764.897 1452.95 766.005 1343.86 834.58C1242.49 898.299 1193.72 1013.6 1069.02 1041.05C935.885 1070.34 786.581 1043.05 670.762 982.703C557.205 923.538 482.728 824.257 451.628 719.373C423.522 624.585 478.427 532.559 509.4 438.512C539.213 347.987 530.19 232.87 628.71 181.671C727.41 130.379 856.882 184.55 974.05 197.045C1062.3 206.456 1149.7 210.943 1227.47 245.524C1307.32 281.027 1357.93 340.161 1418.49 394.664Z" fill="black" style="mix-blend-mode:darken"/>
<path fill-rule="evenodd" clip-rule="evenodd" d="M1418.49 394.664C1513.75 480.391 1701.92 542.224 1682.74 655.259C1664.14 764.897 1452.95 766.005 1343.86 834.58C1242.49 898.299 1193.72 1013.6 1069.02 1041.05C935.885 1070.34 786.581 1043.05 670.762 982.703C557.205 923.538 482.728 824.257 451.628 719.373C423.522 624.585 478.427 532.559 509.4 438.512C539.213 347.987 530.19 232.87 628.71 181.671C727.41 130.379 856.882 184.55 974.05 197.045C1062.3 206.456 1149.7 210.943 1227.47 245.524C1307.32 281.027 1357.93 340.161 1418.49 394.664Z" stroke="url(#paint31_linear)" stroke-width="3"/>
</g>
<g id="Vector_33" opacity="0.34">
<path fill-rule="evenodd" clip-rule="evenodd" d="M1420 390.097C1516.77 474.179 1705.58 533.179 1688.96 646.039C1672.84 755.507 1462.48 759.519 1355.32 829.33C1255.74 894.198 1209.68 1009.73 1086.07 1038.78C954.086 1069.8 804.758 1044.66 688.06 986.148C573.642 928.777 497.271 830.908 463.989 726.861C433.91 632.828 486.585 540.404 515.374 446.296C543.085 355.712 531.57 241.167 628.587 188.81C725.782 136.358 855.944 188.535 972.936 199.368C1061.05 207.526 1148.21 210.792 1226.44 244.168C1306.76 278.433 1358.48 336.64 1420 390.097Z" fill="black" style="mix-blend-mode:darken"/>
<path fill-rule="evenodd" clip-rule="evenodd" d="M1420 390.097C1516.77 474.179 1705.58 533.179 1688.96 646.039C1672.84 755.507 1462.48 759.519 1355.32 829.33C1255.74 894.198 1209.68 1009.73 1086.07 1038.78C954.086 1069.8 804.758 1044.66 688.06 986.148C573.642 928.777 497.271 830.908 463.989 726.861C433.91 632.828 486.585 540.404 515.374 446.296C543.085 355.712 531.57 241.167 628.587 188.81C725.782 136.358 855.944 188.535 972.936 199.368C1061.05 207.526 1148.21 210.792 1226.44 244.168C1306.76 278.433 1358.48 336.64 1420 390.097Z" stroke="url(#paint32_linear)" stroke-width="3"/>
</g>
<g id="Vector_34" opacity="0.35">
<path fill-rule="evenodd" clip-rule="evenodd" d="M1421.34 385.546C1519.58 467.967 1708.95 524.137 1694.87 636.785C1681.22 746.048 1471.76 752.942 1366.54 823.957C1268.78 889.943 1225.43 1005.66 1102.93 1036.3C972.141 1069.01 822.838 1046.03 705.306 989.354C590.071 933.783 511.847 837.348 476.41 734.164C444.383 640.913 494.826 548.123 521.438 453.986C547.054 363.374 533.07 249.434 628.563 195.946C724.231 142.359 855.036 192.54 971.813 201.718C1059.76 208.632 1146.66 210.684 1225.33 242.852C1306.09 275.877 1358.88 333.145 1421.34 385.546Z" fill="black" style="mix-blend-mode:darken"/>
<path fill-rule="evenodd" clip-rule="evenodd" d="M1421.34 385.546C1519.58 467.967 1708.95 524.137 1694.87 636.785C1681.22 746.048 1471.76 752.942 1366.54 823.957C1268.78 889.943 1225.43 1005.66 1102.93 1036.3C972.141 1069.01 822.838 1046.03 705.306 989.354C590.071 933.783 511.847 837.348 476.41 734.164C444.383 640.913 494.826 548.123 521.438 453.986C547.054 363.374 533.07 249.434 628.563 195.946C724.231 142.359 855.036 192.54 971.813 201.718C1059.76 208.632 1146.66 210.684 1225.33 242.852C1306.09 275.877 1358.88 333.145 1421.34 385.546Z" stroke="url(#paint33_linear)" stroke-width="3"/>
</g>
<g id="Vector_35" opacity="0.36">
<path fill-rule="evenodd" clip-rule="evenodd" d="M1422.5 381.014C1522.17 461.759 1712.04 515.1 1700.49 627.501C1689.28 736.525 1480.79 746.277 1377.54 818.463C1281.6 885.538 1240.96 1001.39 1119.61 1033.6C990.045 1067.99 840.816 1047.16 722.496 992.321C606.488 938.555 526.451 843.575 488.887 741.283C454.938 648.838 503.149 555.717 527.592 461.582C551.12 370.972 534.688 257.67 628.638 203.076C722.759 148.381 854.158 196.564 970.684 204.098C1058.45 209.773 1145.05 210.62 1224.12 241.579C1305.29 273.362 1359.14 329.678 1422.5 381.014Z" fill="black" style="mix-blend-mode:darken"/>
<path fill-rule="evenodd" clip-rule="evenodd" d="M1422.5 381.014C1522.17 461.759 1712.04 515.1 1700.49 627.501C1689.28 736.525 1480.79 746.277 1377.54 818.463C1281.6 885.538 1240.96 1001.39 1119.61 1033.6C990.045 1067.99 840.816 1047.16 722.496 992.321C606.488 938.555 526.451 843.575 488.887 741.283C454.938 648.838 503.149 555.717 527.592 461.582C551.12 370.972 534.688 257.67 628.638 203.076C722.759 148.381 854.158 196.564 970.684 204.098C1058.45 209.773 1145.05 210.62 1224.12 241.579C1305.29 273.362 1359.14 329.678 1422.5 381.014Z" stroke="url(#paint34_linear)" stroke-width="3"/>
</g>
<g id="Vector_36" opacity="0.37">
<path fill-rule="evenodd" clip-rule="evenodd" d="M1423.49 376.504C1524.54 455.559 1714.85 506.075 1705.8 618.194C1697.03 726.943 1489.57 739.53 1388.3 812.854C1294.21 880.987 1256.27 996.949 1136.1 1030.7C1007.79 1066.74 858.685 1048.04 739.623 995.053C622.886 943.096 541.076 849.591 501.413 748.219C465.568 656.605 511.547 563.185 533.829 469.083C555.277 378.504 536.424 265.874 628.809 210.2C721.364 154.424 853.309 200.607 969.546 206.507C1057.09 210.95 1143.38 210.601 1222.82 240.349C1304.37 270.89 1359.24 326.243 1423.49 376.504Z" fill="black" style="mix-blend-mode:darken"/>
<path fill-rule="evenodd" clip-rule="evenodd" d="M1423.49 376.504C1524.54 455.559 1714.85 506.075 1705.8 618.194C1697.03 726.943 1489.57 739.53 1388.3 812.854C1294.21 880.987 1256.27 996.949 1136.1 1030.7C1007.79 1066.74 858.685 1048.04 739.623 995.053C622.886 943.096 541.076 849.591 501.413 748.219C465.568 656.605 511.547 563.185 533.829 469.083C555.277 378.504 536.424 265.874 628.809 210.2C721.364 154.424 853.309 200.607 969.546 206.507C1057.09 210.95 1143.38 210.601 1222.82 240.349C1304.37 270.89 1359.24 326.243 1423.49 376.504Z" stroke="url(#paint35_linear)" stroke-width="3"/>
</g>
<g id="Vector_37" opacity="0.38">
<path fill-rule="evenodd" clip-rule="evenodd" d="M1424.3 372.019C1526.7 449.37 1717.36 497.066 1710.82 608.867C1704.47 717.309 1498.09 732.704 1398.83 807.135C1306.59 876.295 1271.35 992.322 1152.39 1027.6C1025.37 1065.26 876.442 1048.69 756.681 997.551C639.26 947.407 555.719 855.397 513.986 754.971C476.27 664.212 520.02 570.527 540.15 476.489C559.526 385.972 538.275 274.045 629.077 217.318C720.046 160.487 852.489 204.67 968.403 208.945C1055.7 212.165 1141.65 210.629 1221.43 239.165C1303.33 268.462 1359.2 322.841 1424.3 372.019Z" fill="black" style="mix-blend-mode:darken"/>
<path fill-rule="evenodd" clip-rule="evenodd" d="M1424.3 372.019C1526.7 449.37 1717.36 497.066 1710.82 608.867C1704.47 717.309 1498.09 732.704 1398.83 807.135C1306.59 876.295 1271.35 992.322 1152.39 1027.6C1025.37 1065.26 876.442 1048.69 756.681 997.551C639.26 947.407 555.719 855.397 513.986 754.971C476.27 664.212 520.02 570.527 540.15 476.489C559.526 385.972 538.275 274.045 629.077 217.318C720.046 160.487 852.489 204.67 968.403 208.945C1055.7 212.165 1141.65 210.629 1221.43 239.165C1303.33 268.462 1359.2 322.841 1424.3 372.019Z" stroke="url(#paint36_linear)" stroke-width="3"/>
</g>
<g id="Vector_38" opacity="0.39">
<path fill-rule="evenodd" clip-rule="evenodd" d="M1424.94 367.562C1528.63 443.196 1719.6 488.077 1715.53 599.527C1711.59 707.627 1506.36 725.804 1409.12 801.308C1318.76 871.465 1286.2 987.519 1168.48 1024.29C1042.79 1063.56 894.078 1049.11 773.665 999.817C655.604 951.489 570.371 860.994 526.598 761.54C487.039 671.659 528.561 577.742 546.549 483.798C563.863 393.372 540.239 282.182 629.441 224.428C718.806 166.568 851.699 208.752 967.252 211.413C1054.28 213.418 1139.85 210.704 1219.95 238.028C1302.17 266.081 1359.02 319.475 1424.94 367.562Z" fill="black" style="mix-blend-mode:darken"/>
<path fill-rule="evenodd" clip-rule="evenodd" d="M1424.94 367.562C1528.63 443.196 1719.6 488.077 1715.53 599.527C1711.59 707.627 1506.36 725.804 1409.12 801.308C1318.76 871.465 1286.2 987.519 1168.48 1024.29C1042.79 1063.56 894.078 1049.11 773.665 999.817C655.604 951.489 570.371 860.994 526.598 761.54C487.039 671.659 528.561 577.742 546.549 483.798C563.863 393.372 540.239 282.182 629.441 224.428C718.806 166.568 851.699 208.752 967.252 211.413C1054.28 213.418 1139.85 210.704 1219.95 238.028C1302.17 266.081 1359.02 319.475 1424.94 367.562Z" stroke="url(#paint37_linear)" stroke-width="3"/>
</g>
<g id="Vector_39" opacity="0.4">
<path fill-rule="evenodd" clip-rule="evenodd" d="M1425.41 363.135C1530.35 437.042 1721.55 479.113 1719.94 590.176C1718.39 697.902 1514.36 718.834 1419.16 795.378C1330.7 866.502 1300.82 982.544 1184.37 1020.79C1060.03 1061.63 911.589 1049.29 790.568 1001.85C671.912 955.344 585.029 866.383 539.246 767.926C497.87 678.947 537.169 584.83 553.024 491.012C568.286 400.706 542.315 290.282 629.899 231.528C717.643 172.667 850.938 212.853 966.094 213.912C1052.82 214.71 1138 210.827 1218.38 236.94C1300.89 263.749 1358.69 316.148 1425.41 363.135Z" fill="black" style="mix-blend-mode:darken"/>
<path fill-rule="evenodd" clip-rule="evenodd" d="M1425.41 363.135C1530.35 437.042 1721.55 479.113 1719.94 590.176C1718.39 697.902 1514.36 718.834 1419.16 795.378C1330.7 866.502 1300.82 982.544 1184.37 1020.79C1060.03 1061.63 911.589 1049.29 790.568 1001.85C671.912 955.344 585.029 866.383 539.246 767.926C497.87 678.947 537.169 584.83 553.024 491.012C568.286 400.706 542.315 290.282 629.899 231.528C717.643 172.667 850.938 212.853 966.094 213.912C1052.82 214.71 1138 210.827 1218.38 236.94C1300.89 263.749 1358.69 316.148 1425.41 363.135Z" stroke="url(#paint38_linear)" stroke-width="3"/>
</g>
<g id="Vector_40" opacity="0.41">
<path fill-rule="evenodd" clip-rule="evenodd" d="M1425.7 358.743C1531.85 430.909 1723.22 470.179 1724.06 580.822C1724.87 688.14 1522.11 711.8 1428.97 789.35C1342.42 861.41 1315.19 977.401 1200.04 1017.1C1077.1 1059.49 928.969 1049.24 807.386 1003.66C688.178 958.974 599.687 871.564 551.925 774.13C508.76 686.075 545.838 591.792 559.573 498.128C572.793 407.972 544.502 298.346 630.45 238.619C716.556 178.783 850.206 216.973 964.93 216.441C1051.34 216.041 1136.09 211.001 1216.72 235.902C1299.5 261.467 1358.22 312.862 1425.7 358.743Z" fill="black" style="mix-blend-mode:darken"/>
<path fill-rule="evenodd" clip-rule="evenodd" d="M1425.7 358.743C1531.85 430.909 1723.22 470.179 1724.06 580.822C1724.87 688.14 1522.11 711.8 1428.97 789.35C1342.42 861.41 1315.19 977.401 1200.04 1017.1C1077.1 1059.49 928.969 1049.24 807.386 1003.66C688.178 958.974 599.687 871.564 551.925 774.13C508.76 686.075 545.838 591.792 559.573 498.128C572.793 407.972 544.502 298.346 630.45 238.619C716.556 178.783 850.206 216.973 964.93 216.441C1051.34 216.041 1136.09 211.001 1216.72 235.902C1299.5 261.467 1358.22 312.862 1425.7 358.743Z" stroke="url(#paint39_linear)" stroke-width="3"/>
</g>
<g id="Vector_41" opacity="0.42">
<path fill-rule="evenodd" clip-rule="evenodd" d="M1425.83 354.386C1533.14 424.802 1724.61 461.279 1727.87 571.468C1731.03 678.346 1529.6 704.704 1438.52 783.229C1353.9 856.192 1329.33 972.096 1215.51 1013.23C1093.98 1057.14 946.213 1048.97 824.113 1005.25C704.397 962.38 614.339 876.538 564.629 780.152C519.704 693.044 554.567 598.627 566.192 505.148C577.382 415.17 546.798 306.371 631.095 245.699C715.546 184.916 849.504 221.112 963.761 219.002C1049.81 217.413 1134.12 211.225 1214.98 234.916C1297.99 259.238 1357.6 309.618 1425.83 354.386Z" fill="black" style="mix-blend-mode:darken"/>
<path fill-rule="evenodd" clip-rule="evenodd" d="M1425.83 354.386C1533.14 424.802 1724.61 461.279 1727.87 571.468C1731.03 678.346 1529.6 704.704 1438.52 783.229C1353.9 856.192 1329.33 972.096 1215.51 1013.23C1093.98 1057.14 946.213 1048.97 824.113 1005.25C704.397 962.38 614.339 876.538 564.629 780.152C519.704 693.044 554.567 598.627 566.192 505.148C577.382 415.17 546.798 306.371 631.095 245.699C715.546 184.916 849.504 221.112 963.761 219.002C1049.81 217.413 1134.12 211.225 1214.98 234.916C1297.99 259.238 1357.6 309.618 1425.83 354.386Z" stroke="url(#paint40_linear)" stroke-width="3"/>
</g>
<g id="Vector_42" opacity="0.43">
<path fill-rule="evenodd" clip-rule="evenodd" d="M1425.78 350.07C1534.21 418.724 1725.72 452.417 1731.38 562.12C1736.88 668.526 1536.83 697.553 1447.84 777.017C1365.15 850.855 1343.22 966.632 1230.75 1009.17C1110.67 1054.58 963.316 1048.48 840.743 1006.61C720.564 965.565 628.982 881.308 577.355 785.993C530.698 699.853 563.35 605.334 572.878 512.07C582.049 422.299 549.201 314.358 631.831 252.768C714.612 191.065 848.831 225.27 962.586 221.594C1048.26 218.826 1132.1 211.501 1213.15 233.983C1296.37 257.064 1356.85 306.421 1425.78 350.07Z" fill="black" style="mix-blend-mode:darken"/>
<path fill-rule="evenodd" clip-rule="evenodd" d="M1425.78 350.07C1534.21 418.724 1725.72 452.417 1731.38 562.12C1736.88 668.526 1536.83 697.553 1447.84 777.017C1365.15 850.855 1343.22 966.632 1230.75 1009.17C1110.67 1054.58 963.316 1048.48 840.743 1006.61C720.564 965.565 628.982 881.308 577.355 785.993C530.698 699.853 563.35 605.334 572.878 512.07C582.049 422.299 549.201 314.358 631.831 252.768C714.612 191.065 848.831 225.27 962.586 221.594C1048.26 218.826 1132.1 211.501 1213.15 233.983C1296.37 257.064 1356.85 306.421 1425.78 350.07Z" stroke="url(#paint41_linear)" stroke-width="3"/>
</g>
<g id="Vector_43" opacity="0.44">
<path fill-rule="evenodd" clip-rule="evenodd" d="M1425.57 345.795C1535.07 412.68 1726.55 443.598 1734.6 552.781C1742.41 658.683 1543.79 690.351 1456.9 770.721C1376.16 845.4 1356.86 961.014 1245.78 1004.93C1127.17 1051.81 980.273 1047.77 857.271 1007.76C736.672 968.53 643.607 885.874 590.096 791.654C541.736 706.503 572.184 611.915 579.629 518.895C586.794 429.358 551.708 322.304 632.657 259.823C713.754 197.228 848.186 229.446 961.406 224.218C1046.68 220.28 1130.02 211.83 1211.24 233.105C1294.63 254.947 1355.95 303.272 1425.57 345.795Z" fill="black" style="mix-blend-mode:darken"/>
<path fill-rule="evenodd" clip-rule="evenodd" d="M1425.57 345.795C1535.07 412.68 1726.55 443.598 1734.6 552.781C1742.41 658.683 1543.79 690.351 1456.9 770.721C1376.16 845.4 1356.86 961.014 1245.78 1004.93C1127.17 1051.81 980.273 1047.77 857.271 1007.76C736.672 968.53 643.607 885.874 590.096 791.654C541.736 706.503 572.184 611.915 579.629 518.895C586.794 429.358 551.708 322.304 632.657 259.823C713.754 197.228 848.186 229.446 961.406 224.218C1046.68 220.28 1130.02 211.83 1211.24 233.105C1294.63 254.947 1355.95 303.272 1425.57 345.795Z" stroke="url(#paint42_linear)" stroke-width="3"/>
</g>
</g>
</g>
</g>
<defs>
<linearGradient id="paint0_linear" x1="1422.28" y1="575.933" x2="122.031" y2="315.64" gradientUnits="userSpaceOnUse">
<stop stop-color="white"/>
<stop offset="1" stop-color="#0047FF"/>
</linearGradient>
<linearGradient id="paint1_linear" x1="1429.72" y1="570.252" x2="126.452" y2="338.748" gradientUnits="userSpaceOnUse">
<stop stop-color="white"/>
<stop offset="1" stop-color="#0047FF"/>
</linearGradient>
<linearGradient id="paint2_linear" x1="1436.95" y1="564.496" x2="131.523" y2="361.906" gradientUnits="userSpaceOnUse">
<stop stop-color="white"/>
<stop offset="1" stop-color="#0047FF"/>
</linearGradient>
<linearGradient id="paint3_linear" x1="1443.97" y1="558.668" x2="137.254" y2="385.078" gradientUnits="userSpaceOnUse">
<stop stop-color="white"/>
<stop offset="1" stop-color="#0047FF"/>
</linearGradient>
<linearGradient id="paint4_linear" x1="1450.79" y1="552.772" x2="143.653" y2="408.229" gradientUnits="userSpaceOnUse">
<stop stop-color="white"/>
<stop offset="1" stop-color="#0047FF"/>
</linearGradient>
<linearGradient id="paint5_linear" x1="1463.81" y1="540.788" x2="158.461" y2="454.322" gradientUnits="userSpaceOnUse">
<stop stop-color="white"/>
<stop offset="1" stop-color="#0047FF"/>
</linearGradient>
<linearGradient id="paint6_linear" x1="1470" y1="534.707" x2="166.872" y2="477.19" gradientUnits="userSpaceOnUse">
<stop stop-color="white"/>
<stop offset="1" stop-color="#0047FF"/>
</linearGradient>
<linearGradient id="paint7_linear" x1="1475.98" y1="528.571" x2="175.949" y2="499.89" gradientUnits="userSpaceOnUse">
<stop stop-color="white"/>
<stop offset="1" stop-color="#0047FF"/>
</linearGradient>
<linearGradient id="paint8_linear" x1="1481.75" y1="522.384" x2="185.689" y2="522.384" gradientUnits="userSpaceOnUse">
<stop stop-color="white"/>
<stop offset="1" stop-color="#0047FF"/>
</linearGradient>
<linearGradient id="paint9_linear" x1="1487.31" y1="516.15" x2="196.08" y2="544.637" gradientUnits="userSpaceOnUse">
<stop stop-color="white"/>
<stop offset="1" stop-color="#0047FF"/>
</linearGradient>
<linearGradient id="paint10_linear" x1="1492.65" y1="509.871" x2="207.115" y2="566.611" gradientUnits="userSpaceOnUse">
<stop stop-color="#1B1E1E"/>
<stop offset="1" stop-color="#0047FF"/>
</linearGradient>
<linearGradient id="paint11_linear" x1="1497.77" y1="503.551" x2="218.775" y2="588.272" gradientUnits="userSpaceOnUse">
<stop stop-color="#1B1E1E"/>
<stop offset="1" stop-color="#0047FF"/>
</linearGradient>
<linearGradient id="paint12_linear" x1="1502.68" y1="497.194" x2="231.047" y2="609.584" gradientUnits="userSpaceOnUse">
<stop stop-color="#1B1E1E"/>
<stop offset="1" stop-color="#0047FF"/>
</linearGradient>
<linearGradient id="paint13_linear" x1="1507.37" y1="490.804" x2="243.914" y2="630.516" gradientUnits="userSpaceOnUse">
<stop stop-color="#1B1E1E"/>
<stop offset="1" stop-color="#0047FF"/>
</linearGradient>
<linearGradient id="paint14_linear" x1="1511.84" y1="484.383" x2="257.354" y2="651.034" gradientUnits="userSpaceOnUse">
<stop stop-color="#1B1E1E"/>
<stop offset="1" stop-color="#0047FF"/>
</linearGradient>
<linearGradient id="paint15_linear" x1="1516.1" y1="477.935" x2="271.344" y2="671.109" gradientUnits="userSpaceOnUse">
<stop stop-color="#1B1E1E"/>
<stop offset="1" stop-color="#0047FF"/>
</linearGradient>
<linearGradient id="paint16_linear" x1="1520.13" y1="471.465" x2="285.861" y2="690.712" gradientUnits="userSpaceOnUse">
<stop stop-color="#1B1E1E"/>
<stop offset="1" stop-color="#0047FF"/>
</linearGradient>
<linearGradient id="paint17_linear" x1="1523.94" y1="464.975" x2="300.879" y2="709.816" gradientUnits="userSpaceOnUse">
<stop stop-color="#1B1E1E"/>
<stop offset="1" stop-color="#0047FF"/>
</linearGradient>
<linearGradient id="paint18_linear" x1="1527.54" y1="458.469" x2="316.37" y2="728.396" gradientUnits="userSpaceOnUse">
<stop stop-color="#1B1E1E"/>
<stop offset="1" stop-color="#0047FF"/>
</linearGradient>
<linearGradient id="paint19_linear" x1="1530.92" y1="451.95" x2="332.304" y2="746.428" gradientUnits="userSpaceOnUse">
<stop stop-color="#1B1E1E"/>
<stop offset="1" stop-color="#0047FF"/>
</linearGradient>
<linearGradient id="paint20_linear" x1="1534.07" y1="445.422" x2="348.652" y2="763.893" gradientUnits="userSpaceOnUse">
<stop stop-color="#1B1E1E"/>
<stop offset="1" stop-color="#0047FF"/>
</linearGradient>
<linearGradient id="paint21_linear" x1="1537.01" y1="438.89" x2="365.382" y2="780.77" gradientUnits="userSpaceOnUse">
<stop stop-color="#1B1E1E"/>
<stop offset="1" stop-color="#0047FF"/>
</linearGradient>
<linearGradient id="paint22_linear" x1="1539.72" y1="432.355" x2="382.463" y2="797.045" gradientUnits="userSpaceOnUse">
<stop stop-color="#1B1E1E"/>
<stop offset="1" stop-color="#0047FF"/>
</linearGradient>
<linearGradient id="paint23_linear" x1="1542.22" y1="425.822" x2="399.862" y2="812.702" gradientUnits="userSpaceOnUse">
<stop stop-color="#1B1E1E"/>
<stop offset="1" stop-color="#0047FF"/>
</linearGradient>
<linearGradient id="paint24_linear" x1="1544.49" y1="419.295" x2="417.545" y2="827.73" gradientUnits="userSpaceOnUse">
<stop stop-color="#1B1E1E"/>
<stop offset="1" stop-color="#0047FF"/>
</linearGradient>
<linearGradient id="paint25_linear" x1="1546.55" y1="412.776" x2="435.478" y2="842.118" gradientUnits="userSpaceOnUse">
<stop stop-color="#1B1E1E"/>
<stop offset="1" stop-color="#0047FF"/>
</linearGradient>
<linearGradient id="paint26_linear" x1="1548.39" y1="406.271" x2="453.629" y2="855.86" gradientUnits="userSpaceOnUse">
<stop stop-color="#1B1E1E"/>
<stop offset="1" stop-color="#0047FF"/>
</linearGradient>
<linearGradient id="paint27_linear" x1="1550" y1="399.78" x2="471.963" y2="868.95" gradientUnits="userSpaceOnUse">
<stop stop-color="#1B1E1E"/>
<stop offset="1" stop-color="#0047FF"/>
</linearGradient>
<linearGradient id="paint28_linear" x1="1551.41" y1="393.31" x2="490.448" y2="881.385" gradientUnits="userSpaceOnUse">
<stop stop-color="#1B1E1E"/>
<stop offset="1" stop-color="#0047FF"/>
</linearGradient>
<linearGradient id="paint29_linear" x1="1552.59" y1="386.862" x2="509.05" y2="893.164" gradientUnits="userSpaceOnUse">
<stop stop-color="#1B1E1E"/>
<stop offset="1" stop-color="#0047FF"/>
</linearGradient>
<linearGradient id="paint30_linear" x1="1553.56" y1="380.441" x2="527.736" y2="904.287" gradientUnits="userSpaceOnUse">
<stop stop-color="#1B1E1E"/>
<stop offset="1" stop-color="#0047FF"/>
</linearGradient>
<linearGradient id="paint31_linear" x1="1554.31" y1="374.049" x2="546.476" y2="914.758" gradientUnits="userSpaceOnUse">
<stop stop-color="#1B1E1E"/>
<stop offset="1" stop-color="#0047FF"/>
</linearGradient>
<linearGradient id="paint32_linear" x1="1554.85" y1="367.692" x2="565.238" y2="924.582" gradientUnits="userSpaceOnUse">
<stop stop-color="#1B1E1E"/>
<stop offset="1" stop-color="#0047FF"/>
</linearGradient>
<linearGradient id="paint33_linear" x1="1555.17" y1="361.371" x2="583.992" y2="933.765" gradientUnits="userSpaceOnUse">
<stop stop-color="#1B1E1E"/>
<stop offset="1" stop-color="#0047FF"/>
</linearGradient>
<linearGradient id="paint34_linear" x1="1555.29" y1="355.09" x2="602.709" y2="942.314" gradientUnits="userSpaceOnUse">
<stop stop-color="#1B1E1E"/>
<stop offset="1" stop-color="#0047FF"/>
</linearGradient>
<linearGradient id="paint35_linear" x1="1555.19" y1="348.852" x2="621.36" y2="950.24" gradientUnits="userSpaceOnUse">
<stop stop-color="#1B1E1E"/>
<stop offset="1" stop-color="#0047FF"/>
</linearGradient>
<linearGradient id="paint36_linear" x1="1554.88" y1="342.662" x2="639.92" y2="957.554" gradientUnits="userSpaceOnUse">
<stop stop-color="#1B1E1E"/>
<stop offset="1" stop-color="#0047FF"/>
</linearGradient>
<linearGradient id="paint37_linear" x1="1554.36" y1="336.522" x2="658.362" y2="964.266" gradientUnits="userSpaceOnUse">
<stop stop-color="#1B1E1E"/>
<stop offset="1" stop-color="#0047FF"/>
</linearGradient>
<linearGradient id="paint38_linear" x1="1553.64" y1="330.436" x2="676.661" y2="970.393" gradientUnits="userSpaceOnUse">
<stop stop-color="#1B1E1E"/>
<stop offset="1" stop-color="#0047FF"/>
</linearGradient>
<linearGradient id="paint39_linear" x1="1552.71" y1="324.407" x2="694.795" y2="975.946" gradientUnits="userSpaceOnUse">
<stop stop-color="#1B1E1E"/>
<stop offset="1" stop-color="#0047FF"/>
</linearGradient>
<linearGradient id="paint40_linear" x1="1551.58" y1="318.439" x2="712.741" y2="980.942" gradientUnits="userSpaceOnUse">
<stop stop-color="#1B1E1E"/>
<stop offset="1" stop-color="#0047FF"/>
</linearGradient>
<linearGradient id="paint41_linear" x1="1550.24" y1="312.534" x2="730.48" y2="985.398" gradientUnits="userSpaceOnUse">
<stop stop-color="#1B1E1E"/>
<stop offset="1" stop-color="#0047FF"/>
</linearGradient>
<linearGradient id="paint42_linear" x1="1548.71" y1="306.695" x2="747.992" y2="989.329" gradientUnits="userSpaceOnUse">
<stop stop-color="#484F4E"/>
<stop offset="1" stop-color="#0047FF"/>
</linearGradient>
<clipPath id="clip0">
<rect width="1920" height="1080" fill="white"/>
</clipPath>
</defs>
</svg>
