<svg xmlns="http://www.w3.org/2000/svg" width="262" height="53" fill="none" viewBox="0 0 262 53"><path fill="#CEEBF4" d="M14.4995 12.544V20.824H30.6995V31.552H14.4995V40.696H32.8595V52H0.387469V1.24H32.8595V12.544H14.4995ZM71.0088 21.184V32.92H38.3928V21.184H71.0088ZM121.562 18.16C121.562 21.232 120.842 24.04 119.402 26.584C118.01 29.08 115.874 31.096 112.994 32.632C110.162 34.12 106.682 34.864 102.554 34.864H95.5698V52H81.4578V1.24H102.554C106.634 1.24 110.09 1.96 112.922 3.4C115.802 4.84 117.962 6.832 119.402 9.376C120.842 11.92 121.562 14.848 121.562 18.16ZM101.186 23.632C105.17 23.632 107.162 21.808 107.162 18.16C107.162 14.464 105.17 12.616 101.186 12.616H95.5698V23.632H101.186ZM141.343 12.544V20.824H157.543V31.552H141.343V40.696H159.703V52H127.231V1.24H159.703V12.544H141.343ZM185.829 52.504C179.925 52.504 175.077 51.112 171.285 48.328C167.493 45.496 165.453 41.464 165.165 36.232H180.213C180.357 38.008 180.885 39.304 181.797 40.12C182.709 40.936 183.885 41.344 185.325 41.344C186.621 41.344 187.677 41.032 188.493 40.408C189.357 39.736 189.789 38.824 189.789 37.672C189.789 36.184 189.093 35.032 187.701 34.216C186.309 33.4 184.053 32.488 180.933 31.48C177.621 30.376 174.933 29.32 172.869 28.312C170.853 27.256 169.077 25.744 167.541 23.776C166.053 21.76 165.309 19.144 165.309 15.928C165.309 12.664 166.125 9.88 167.757 7.576C169.389 5.224 171.645 3.448 174.525 2.248C177.405 1.048 180.669 0.447999 184.317 0.447999C190.221 0.447999 194.925 1.84 198.429 4.624C201.981 7.36 203.877 11.224 204.117 16.216H188.781C188.733 14.68 188.253 13.528 187.341 12.76C186.477 11.992 185.349 11.608 183.957 11.608C182.901 11.608 182.037 11.92 181.365 12.544C180.693 13.168 180.357 14.056 180.357 15.208C180.357 16.168 180.717 17.008 181.437 17.728C182.205 18.4 183.141 19 184.245 19.528C185.349 20.008 186.981 20.632 189.141 21.4C192.357 22.504 194.997 23.608 197.061 24.712C199.173 25.768 200.973 27.28 202.461 29.248C203.997 31.168 204.765 33.616 204.765 36.592C204.765 39.616 203.997 42.328 202.461 44.728C200.973 47.128 198.789 49.024 195.909 50.416C193.077 51.808 189.717 52.504 185.829 52.504ZM243.437 43.72H225.437L222.701 52H207.869L226.373 1.24H242.645L261.077 52H246.173L243.437 43.72ZM239.909 32.92L234.437 16.504L229.037 32.92H239.909Z" style="mix-blend-mode:darken"/></svg>